<?xml version="1.0" encoding="UTF-8" standalone="no"?>
<!-- Created with Inkscape (http://www.inkscape.org/) -->

<svg
   xmlns:dc="http://purl.org/dc/elements/1.1/"
   xmlns:cc="http://creativecommons.org/ns#"
   xmlns:rdf="http://www.w3.org/1999/02/22-rdf-syntax-ns#"
   xmlns:svg="http://www.w3.org/2000/svg"
   xmlns="http://www.w3.org/2000/svg"
   version="1.0"
   width="395.40018"
   height="108.20977"
   viewBox="0 0 395.40016 108.20977"
   id="svg2"
   xml:space="preserve"><metadata
   id="metadata11"><rdf:RDF><cc:Work
       rdf:about=""><dc:format>image/svg+xml</dc:format><dc:type
         rdf:resource="http://purl.org/dc/dcmitype/StillImage" /><dc:title></dc:title></cc:Work></rdf:RDF></metadata><defs
   id="defs9" />
<path
   d="m 390.76994,107.24278 c 0,-10e-4 -8.924,-11.017004 -14.072,-17.420004 l 0,0 c -1.722,-2.144 -3,-3.74 -3.449,-4.328 l 0,0 c -0.625,-0.823 -1.069,-1.416 -1.361,-1.707 l 0,0 c -0.308,-0.296 -0.354,-0.311 -0.586,-0.394 l 0,0 c -0.16,-0.048 -0.449,-0.101 -0.943,-0.101 l 0,0 c -1.115,0 -21.071,0 -21.071,0 l 0,0 c -0.686,0 -1.355,-0.277 -1.84,-0.762 l 0,0 c -0.484,-0.484 -0.763,-1.154 -0.763,-1.841 l 0,0 v -3.099 h -18.344 c -0.687,0 -1.356,-0.278 -1.842,-0.763 l 0,0 c -0.484,-0.484 -0.762,-1.155 -0.762,-1.841 l 0,0 v -14.128 c 0,-0.686 0.277,-1.356 0.762,-1.841 l 0,0 c 0.485,-0.484 1.155,-0.762 1.842,-0.762 l 0,0 18.591,-10e-4 v -0.495 h -19.087 c -0.686,0 -1.356,-0.277 -1.841,-0.763 l 0,0 c -0.484,-0.483 -0.762,-1.154 -0.762,-1.84 l 0,0 v -13.386 c 0,-0.686 0.277,-1.356 0.762,-1.841 l 0,0 c 0.484,-0.485 1.155,-0.762 1.841,-0.762 l 0,0 18.591,-0.001 v -0.495 h -22.311 v 42.019 c 0,0.687 -0.276,1.354 -0.762,1.84 l 0,0 c -0.484,0.485 -1.155,0.763 -1.84,0.763 l 0,0 h -15.99 c -0.686,0 -1.355,-0.277 -1.84,-0.762 l 0,0 c -0.484,-0.484 -0.762,-1.154 -0.762,-1.841 l 0,0 -0.002,-46.977 h -1.115 v 46.977 c 0,0.687 -0.277,1.354 -0.762,1.84 l 0,0 c -0.484,0.485 -1.155,0.763 -1.84,0.763 l 0,0 h -39.044 c -0.687,0 -1.356,-0.277 -1.841,-0.762 l 0,0 c -0.484,-0.484 -0.763,-1.154 -0.763,-1.841 l 0,0 v -33.591 c 0,-0.685 0.278,-1.355 0.763,-1.84 l 0,0 c 0.484,-0.485 1.154,-0.763 1.841,-0.763 l 0,0 h 20.327 v -24.666 h -25.162 v 61.106 c 0,0.686 -0.277,1.357 -0.763,1.842 l 0,0 c -0.483,0.483 -1.154,0.762 -1.839,0.762 l 0,0 h -30.368 c -0.687,0 -1.356,-0.277 -1.841,-0.762 l 0,0 c -0.484,-0.484 -0.763,-1.156 -0.763,-1.842 l 0,0 v -8.924 c 0,-0.686 0.278,-1.355 0.763,-1.84 l 0,0 c 0.484,-0.485 1.154,-0.763 1.841,-0.763 l 0,0 11.774,-10e-4 v -31.109 h -30.738 v 31.112 h 11.279 c 0.685,0 1.355,0.277 1.84,0.763 l 0,0 c 0.485,0.484 0.763,1.154 0.763,1.84 l 0,0 v 8.924 c 0,0.686 -0.278,1.357 -0.763,1.842 l 0,0 c -0.485,0.483 -1.155,0.762 -1.84,0.762 l 0,0 c -0.001,0 -26.154,0 -27.641,0 l 0,0 c -0.776,-0.004 -1.651,-0.004 -2.651,-0.227 l 0,0 c -0.995,-0.217 -2.081,-0.715 -3.001,-1.509 l 0,0 c -0.161,-0.14 -0.211,-0.196 -0.296,-0.28 l 0,0 c -0.077,-0.079 -0.159,-0.165 -0.253,-0.266 l 0,0 c -0.186,-0.199 -0.42,-0.453 -0.7,-0.762 l 0,0 c -0.56,-0.618 -1.305,-1.45 -2.175,-2.429 l 0,0 c -1.74,-1.956 -3.979,-4.492 -6.193,-7.009 l 0,0 c -4.427,-5.031 -8.752,-9.975 -8.752,-9.976 l 0,0 c -0.672,-0.769 -0.833,-1.86 -0.411,-2.789 l 0,0 c 0.421,-0.93 1.349,-1.528 2.371,-1.528 l 0,0 h 17.104 v -18.22 h -21.814 v 42.143 c 0,0.687 -0.278,1.354 -0.762,1.84 l 0,0 c -0.484,0.485 -1.155,0.763 -1.84,0.763 l 0,0 h -15.866 c -0.686,0 -1.356,-0.277 -1.841,-0.763 l 0,0 c -0.485,-0.485 -0.762,-1.153 -0.762,-1.84 l 0,0 v -57.513 c 0,-0.685 0.278,-1.356 0.762,-1.84 l 0,0 c 0.485,-0.484 1.155,-0.762 1.841,-0.762 l 0,0 h 21.194 v -1.116 h -48.464 v 1.116 h 20.823 c 0.686,0 1.356,0.278 1.84,0.762 l 0,0 c 0.484,0.485 0.763,1.155 0.763,1.84 l 0,0 v 57.513 c 0,0.687 -0.278,1.354 -0.763,1.84 l 0,0 c -0.484,0.485 -1.155,0.763 -1.84,0.763 l 0,0 h -15.99 c -0.686,0 -1.355,-0.277 -1.84,-0.762 l 0,0 c -0.485,-0.484 -0.763,-1.154 -0.763,-1.841 l 0,0 v -3.347 H 97.917943 c -0.686,0 -1.356,-0.277 -1.84,-0.762 l 0,0 c -0.484,-0.484 -0.762,-1.155 -0.762,-1.841 l 0,0 v -14.13 c 0,-0.686 0.278,-1.355 0.762,-1.84 l 0,0 c 0.484,-0.485 1.155,-0.763 1.84,-0.763 l 0,0 h 18.839997 v -0.62 H 97.794943 c -0.686,0 -1.356,-0.278 -1.84,-0.762 l 0,0 c -0.485,-0.485 -0.762,-1.155 -0.762,-1.841 l 0,0 v -13.262 c 0,-0.686 0.277,-1.356 0.762,-1.841 l 0,0 c 0.484,-0.485 1.155,-0.762 1.84,-0.762 l 0,0 h 19.087997 v -0.744 H 94.199943 v 42.515 c 0,0.687 -0.278,1.354 -0.763,1.84 l 0,0 c -0.485,0.485 -1.155,0.763 -1.84,0.763 l 0,0 c -10e-4,0 -15.742,0 -16.609,0 l 0,0 c -0.277,-10e-4 -0.576,-0.006 -0.935,-0.062 l 0,0 c -0.355,-0.052 -0.758,-0.169 -1.084,-0.317 l 0,0 c -0.663,-0.31 -0.99,-0.573 -1.533,-0.926 l 0,0 c -0.284,-0.194 -0.389,-0.312 -0.492,-0.413 l 0,0 c -0.097,-0.1 -0.165,-0.181 -0.23,-0.259 l 0,0 c -0.127,-0.156 -0.236,-0.303 -0.356,-0.471 l 0,0 c -0.235,-0.331 -0.504,-0.734 -0.821,-1.225 l 0,0 c -0.632,-0.979 -1.448,-2.298 -2.393,-3.855 l 0,0 c -1.89,-3.111 -4.291,-7.17 -6.657,-11.205 l 0,0 c -4.732,-8.066 -9.32,-16.034 -9.322,-16.037 l 0,0 c -0.464,-0.807 -0.463,-1.797 0.002,-2.602 l 0,0 c 0.465,-0.805 1.323,-1.3 2.253,-1.3 l 0,0 20.203,0 v -24.79 h -24.681 l -0.356,60.874 c -0.008,1.422 -1.166,2.58 -2.587,2.588 l 0,0 c -0.008,0 -20.436,0.125 -21.334,0.125 l 0,0 c -1.557,0.003 -2.815,-0.515 -3.635,-1.037 l 0,0 c -0.786,-0.499 -1.222,-0.992 -1.375,-1.178 l 0,0 0,10e-4 -19.05700049,-23.024 0,0 c -0.917,-1.106 -0.762,-2.748 0.346,-3.664 l 0,0 c 1.10699999,-0.917 2.74799999,-0.762 3.66499999,0.346 l 0,0 19.0250005,22.983 c 0.024,0.023 0.087,0.077 0.175,0.132 l 0,0 c 0.187,0.113 0.431,0.232 0.858,0.235 l 0,0 c 0.405,0 5.754,-0.031 10.969,-0.063 l 0,0 c 2.912,-0.017 5.787,-0.034 7.762,-0.047 l 0,0 0.357,-60.889 c 0.008,-1.43 1.172,-2.587 2.603,-2.587 l 0,0 h 29.872 c 0.685,0 1.356,0.277 1.84,0.762 l 0,0 c 0.485,0.485 0.763,1.155 0.763,1.841 l 0,0 v 29.996 c 0,0.685 -0.278,1.355 -0.763,1.84 l 0,0 c -0.484,0.484 -1.155,0.762 -1.84,0.762 l 0,0 h -18.297 c 0.771,1.332 1.699,2.934 2.721,4.689 l 0,0 c 2.848,4.899 6.419,11.007 9.299,15.818 l 0,0 c 1.914,3.201 3.542,5.855 4.378,7.098 l 0,0 c 0.115,0.173 0.219,0.32 0.293,0.424 l 0,0 c 0.152,0.102 0.271,0.18 0.354,0.232 l 0,0 c 0.004,0 0.008,0 0.013,0 l 0,0 c 0.644,-10e-4 9.496,-0.002 14.006,-10e-4 l 0,0 v -42.515 c 0,-0.686 0.278,-1.356 0.763,-1.84 l 0,0 c 0.485,-0.485 1.154,-0.763 1.84,-0.763 l 0,0 h 27.888997 c 0.685,0 1.355,0.278 1.84,0.763 l 0,0 c 0.485,0.484 0.763,1.155 0.763,1.84 l 0,0 v 5.95 c 0,0.685 -0.278,1.356 -0.763,1.84 l 0,0 c -0.485,0.485 -1.155,0.763 -1.84,0.763 l 0,0 h -19.088 v 8.057 h 18.964 c 0.686,0 1.356,0.278 1.841,0.763 l 0,0 c 0.485,0.484 0.763,1.154 0.763,1.841 l 0,0 v 5.825 c 0,0.686 -0.278,1.355 -0.763,1.841 l 0,0 c -0.485,0.484 -1.155,0.762 -1.841,0.762 l 0,0 h -18.84 v 8.924 h 18.84 c 0.686,0 1.356,0.279 1.841,0.764 l 0,0 c 0.485,0.484 0.763,1.154 0.763,1.84 l 0,0 v 3.346 h 10.783 v -52.308 h -20.823 c -0.686,0 -1.356,-0.277 -1.841,-0.762 l 0,0 c -0.485,-0.485 -0.763,-1.155 -0.763,-1.84 l 0,0 v -6.321 c 0,-0.686 0.278,-1.356 0.763,-1.84 l 0,0 c 0.485,-0.485 1.155,-0.763 1.841,-0.763 l 0,0 h 53.669 c 0.686,0 1.356,0.278 1.84,0.763 l 0,0 c 0.485,0.484 0.762,1.155 0.762,1.84 l 0,0 v 6.321 c 0,0.686 -0.277,1.356 -0.762,1.841 l 0,0 c -0.484,0.484 -1.155,0.763 -1.84,0.763 l 0,0 h -21.197 v 52.306 h 10.66 v -42.144 c 0,-0.686 0.277,-1.356 0.763,-1.841 l 0,0 c 0.485,-0.485 1.155,-0.762 1.84,-0.762 l 0,0 h 27.021 c 0.686,0 1.356,0.278 1.841,0.762 l 0,0 c 0.484,0.485 0.762,1.156 0.762,1.841 l 0,0 v 23.426 c 0,0.686 -0.278,1.355 -0.763,1.84 l 0,0 c -0.483,0.485 -1.154,0.763 -1.84,0.763 l 0,0 h -13.967 c 1.177,1.343 2.537,2.893 3.94,4.489 l 0,0 c 4.036,4.59 8.465,9.605 9.86,11.109 l 0,0 c 0.125,0.136 0.231,0.247 0.283,0.301 l 0,0 c 0.29,0.23 0.444,0.288 0.736,0.363 l 0,0 c 0.302,0.072 0.791,0.102 1.503,0.099 l 0,0 c 1.197,-0.001 18.385,-0.001 25.037,0 l 0,0 v -3.719 h -11.279 c -0.686,0 -1.356,-0.278 -1.841,-0.763 l 0,0 c -0.484,-0.484 -0.762,-1.154 -0.762,-1.84 l 0,0 v -36.315 c 0,-0.686 0.278,-1.356 0.762,-1.841 l 0,0 c 0.484,-0.485 1.155,-0.762 1.841,-0.762 l 0,0 h 35.945 c 0.686,0 1.355,0.278 1.84,0.762 l 0,0 c 0.485,0.485 0.764,1.155 0.764,1.841 l 0,0 v 36.316 c 0,0.686 -0.278,1.355 -0.764,1.841 l 0,0 c -0.484,0.484 -1.154,0.763 -1.84,0.763 l 0,0 h -11.775 v 3.718 h 25.162 v -61.107 c 0,-0.686 0.277,-1.356 0.762,-1.841 l 0,0 c 0.485,-0.484 1.155,-0.762 1.841,-0.762 l 0,0 h 30.367 c 0.686,0 1.355,0.277 1.841,0.762 l 0,0 c 0.484,0.485 0.762,1.156 0.762,1.841 l 0,0 v 29.871 c 0,0.687 -0.277,1.356 -0.762,1.841 l 0,0 c -0.485,0.484 -1.155,0.763 -1.841,0.763 l 0,0 h -20.328 v 28.384 h 33.839 v -46.977 c 0,-0.686 0.277,-1.356 0.763,-1.84 l 0,0 c 0.484,-0.485 1.154,-0.763 1.84,-0.763 l 0,0 h 6.321 c 0.686,0 1.356,0.278 1.841,0.763 l 0,0 c 0.485,0.485 0.762,1.155 0.762,1.84 l 0,0 v 46.976 h 10.784 v -42.018 c 0,-0.686 0.277,-1.356 0.763,-1.841 l 0,0 c 0.484,-0.484 1.155,-0.762 1.84,-0.762 l 0,0 h 27.517 c 0.686,0 1.356,0.278 1.841,0.762 l 0,0 c 0.485,0.485 0.762,1.156 0.762,1.841 l 0,0 v 5.702 c 0,0.686 -0.276,1.356 -0.762,1.841 l 0,0 c -0.484,0.484 -1.155,0.762 -1.841,0.762 l 0,0 h -18.593 v 8.181 h 19.089 c 0.686,0 1.356,0.278 1.841,0.763 l 0,0 c 0.484,0.484 0.762,1.155 0.762,1.841 l 0,0 v 5.701 c 0,0.685 -0.277,1.355 -0.762,1.841 l 0,0 c -0.484,0.484 -1.155,0.762 -1.841,0.762 l 0,0 h -18.593 v 8.924 h 18.345 c 0.686,0 1.356,0.278 1.841,0.764 l 0,0 c 0.484,0.484 0.762,1.154 0.762,1.84 l 0,0 v 3.1 c 5.444,-0.001 17.605,-0.001 18.469,-0.001 l 0,0 c 0.849,0.001 1.65,0.087 2.42,0.313 l 0,0 c 0.767,0.225 1.479,0.604 2.053,1.051 l 0,0 c 1.155,0.918 1.772,1.883 2.553,2.881 l 0,0 c 0.263,0.344 1.076,1.367 2.176,2.736 l 0,0 c 1.103,1.377 2.509,3.125 4.021,4.999 l 0,0 c 3.023,3.75 6.463,8.003 8.731,10.806004 l 0,0 c 1.512,1.869 2.501,3.089 2.504,3.092 l 0,0 c 0.905,1.118 0.732,2.757 -0.384,3.662 l 0,0 c -0.482,0.391 -1.063,0.58 -1.638,0.58 l 0,0 c -0.761,-0.004 -1.513,-0.332 -2.028,-0.967 l 0,0 z"
   id="path3"
   style="fill:#525252" />
<path
   d="m 300.09794,21.796776 -8.801,-8.801 c -0.492,-0.492 -0.768,-1.164 -0.762,-1.859 l 0,0 c 0.005,-0.695 0.289,-1.3629998 0.789,-1.8479998 l 0,0 8.801,-8.55300004 c 1.024,-0.996 2.663,-0.979 3.666,0.04 l 0,0 8.554,8.67700004 c 0.998,1.0119998 0.998,2.6419998 0,3.6539998 l 0,0 -8.554,8.676 c -0.487,0.496 -1.148,0.773 -1.844,0.776 l 0,0 c -0.003,0 -0.005,0 -0.008,0 l 0,0 c -0.691,0 -1.351,-0.274 -1.841,-0.762 l 0,0 z m -3.252,-10.616 5.079,5.08 4.91,-4.982 -4.937,-5.0079998 -5.052,4.9099998 0,0 z"
   id="path5"
   style="fill:#525252" />
</svg>