<?xml version="1.0" encoding="utf-8"?>
<!-- Generator: Adobe Illustrator 13.0.0, SVG Export Plug-In . SVG Version: 6.00 Build 14948)  -->
<!DOCTYPE svg PUBLIC "-//W3C//DTD SVG 1.0//EN" "http://www.w3.org/TR/2001/REC-SVG-20010904/DTD/svg10.dtd">
<svg version="1.0" id="svg2" xmlns:svg="http://www.w3.org/2000/svg"
	 xmlns="http://www.w3.org/2000/svg" xmlns:xlink="http://www.w3.org/1999/xlink" x="0px" y="0px" width="792.9px"
	 height="133.48px" viewBox="0 0 792.9 133.48" enable-background="new 0 0 792.9 133.48" xml:space="preserve">
<polygon fill="#525252" points="193.95,95.999 277.466,12.605 277.466,49.9 315.189,12.177 315.189,71.91 373.913,13.186 
	373.913,79.003 440.447,12.468 440.447,49.411 477.628,12.231 477.628,68.731 533.513,12.846 598.69,12.846 578.207,33.33 
	545.622,33.33 535.992,42.96 552.714,42.96 531.025,64.65 512.852,64.65 503.597,73.905 560.784,73.905 539.283,95.407 
	451.713,95.407 456.369,90.751 456.369,66.286 425.794,96.86 425.794,61.15 390.454,96.49 352.912,96.49 352.912,67.998 
	296.419,124.49 262.426,124.49 293.484,93.431 293.484,67.263 262.182,98.567 262.182,62.128 228.311,95.999 "/>
</svg>
