<?xml version="1.0" encoding="utf-8"?>
<!-- Generator: Adobe Illustrator 13.0.0, SVG Export Plug-In . SVG Version: 6.00 Build 14948)  -->
<!DOCTYPE svg PUBLIC "-//W3C//DTD SVG 1.0//EN" "http://www.w3.org/TR/2001/REC-SVG-20010904/DTD/svg10.dtd">
<svg version="1.0" id="svg2" xmlns:svg="http://www.w3.org/2000/svg"
	 xmlns="http://www.w3.org/2000/svg" xmlns:xlink="http://www.w3.org/1999/xlink" x="0px" y="0px" width="792.9px"
	 height="133.48px" viewBox="0 0 792.9 133.48" enable-background="new 0 0 792.9 133.48" xml:space="preserve">
<path id="path2898_1_" fill="#525252" d="M194.63,125.527l53.172-0.043c21.748,0,39.375-17.625,39.375-39.374
	c0-21.743-17.627-39.373-39.375-39.373l-13.806,0.067c-1.101,0-1.99-0.893-1.99-1.991c0-1.107,0.89-1.998,1.99-1.998l53.045,0.007
	l0.03-16.669h-53.087c-10.288,0-18.625,8.339-18.625,18.624c0,10.289,8.337,18.625,18.625,18.625l13.875,0.154
	c12.453,0,22.545,10.091,22.545,22.541c0,12.456-10.092,22.549-22.545,22.549h-53.208L194.63,125.527"/>
<path id="path2900_1_" fill="#525252" d="M194.651,104.722h53.208c10.289,0,18.625-8.336,18.625-18.625
	c0-10.281-8.337-18.621-18.625-18.621l-13.875-0.152c-12.453,0-22.545-10.09-22.545-22.546c0-12.449,10.093-22.542,22.545-22.542
	l53.087-0.024l-0.03-16.758l-53.045-0.018c-21.745,0-39.373,17.63-39.373,39.379c0,21.742,17.627,39.369,39.373,39.369l13.725,0.012
	c1.064,0,1.923,0.859,1.923,1.928c0,1.061-0.859,1.927-1.923,1.927l-53.091,0.019L194.651,104.722"/>
<path id="path2902_1_" fill="#525252" d="M328.386,108.751c-9.212,0-16.767-7.381-16.767-16.764V38.689
	c0-9.036,7.555-16.509,16.767-16.509l56.755,0.016l-0.003-16.739l-56.751-0.013c-18.457,0-33.417,14.964-33.417,33.415v53.128
	c0,18.451,14.96,33.411,33.417,33.411l56.517,0.024l-0.018-16.695L328.386,108.751"/>
<path id="path2904_1_" fill="#525252" d="M315.687,38.859c0-7.036,5.658-12.742,12.7-12.742h56.755l-0.003,16.712h-48.897
	c-3.919,0.002-3.964,3.938-3.964,3.938h40.773l0.012,16.659h-57.403L315.687,38.859"/>
<path id="path2906_1_" fill="#525252" d="M328.386,104.7c-7.023,0-12.715-5.695-12.715-12.713l-0.012-24.583h57.403l-0.012,16.709
	h-40.776c0.048,3.933,3.967,3.939,3.967,3.939h48.663l-0.018,16.626L328.386,104.7"/>
<path id="path2908_1_" fill="#525252" d="M424.906,108.708c-9.212,0-16.722-7.511-16.722-16.721V38.859
	c0-9.206,7.464-16.678,16.676-16.678l54.949-0.01l0.006-16.722l-55.083-0.004c-18.457,0-33.416,14.964-33.416,33.415v53.128
	c0,18.451,15.091,33.411,33.544,33.411l54.955,0.024L479.81,46.75h-47.227v16.676h30.535v45.286L424.906,108.708"/>
<path id="path2910_1_" fill="#525252" d="M412.117,91.987c0,7.034,5.705,12.83,12.743,12.83l34.318,0.002V67.368h-26.553v16.73
	h9.854l0.04,3.938l-9.806-0.015c-2.164,0-3.922-1.758-3.922-3.924l-0.06-37.37c0,0-0.009-3.896,3.939-3.977h47.184l-0.046-16.676
	l-54.949,0.042c-7.038,0-12.743,5.706-12.743,12.742V91.987"/>
<path id="path2912_1_" fill="#525252" d="M531.446,25.841c0.74-2.126,2.762-3.654,5.14-3.654c2.38,0,4.407,1.535,5.141,3.665
	l26.654,79.054h-39.034l0.042-18.592h13.057l-5.89-17.504l-19.13,56.599h-19.714L531.446,25.841"/>
<path id="path2914_1_" fill="#525252" d="M573.772,108.713H529.41v16.696h67.54L561.818,21.145
	C558.74,10.98,548.606,3.517,536.575,3.517c-12.02,0-22.15,7.457-25.234,17.608l-35.458,104.283h17.683l34.398-101.375
	c1.407-3.355,4.717-5.715,8.582-5.715c3.86,0,7.163,2.342,8.572,5.685L573.772,108.713"/>
</svg>
