<?xml version="1.0" encoding="utf-8"?>
<!-- Generator: Adobe Illustrator 13.0.0, SVG Export Plug-In . SVG Version: 6.00 Build 14948)  -->
<!DOCTYPE svg PUBLIC "-//W3C//DTD SVG 1.0//EN" "http://www.w3.org/TR/2001/REC-SVG-20010904/DTD/svg10.dtd">
<svg version="1.0" id="svg2" xmlns:svg="http://www.w3.org/2000/svg"
	 xmlns="http://www.w3.org/2000/svg" xmlns:xlink="http://www.w3.org/1999/xlink" x="0px" y="0px" width="792.9px"
	 height="133.48px" viewBox="0 0 792.9 133.48" enable-background="new 0 0 792.9 133.48" xml:space="preserve">
<path id="path3003" inkscape:connector-curvature="0" fill="#525252" d="M321.303,71.724l-57.04-68.309L238.37,33.044l12.414,11.358
	l-14.833,82.207l29.803-13.079l-15.386-14.241l8.531-43.482l60.067,69.229l20.74-94.405l21.007-12.702L335.316,2.483L321.303,71.724
	L321.303,71.724z M371.519,14.866c1.809,2.036,4.055,4.626,3.53,7.391l0,0l-7.012,36.92l0,0c-0.547,2.888-3.106,4.989-5.118,6.43
	c-2.011,1.44-4.478,1.826-6.945,2.213c2.132,0.835,4.264,1.669,5.696,3.215c1.431,1.547,3.406,3.747,2.889,6.063l0,0l-8.033,35.973
	l0,0c-0.738,3.313-4.126,5.39-6.527,7.196s-5.142,2.727-7.881,3.648l0,0h95.961l6.734-35.989l0,0
	c-3.691,7.468-7.386,14.938-13.674,19.726c-6.289,4.788-14.923,8.999-24.052,8.999l0,0h-17.575l8.778-44.522l0,0
	c3.184-1.099,6.783-0.984,10.036,0.596c3.254,1.581,6.162,4.629,8.76,7.941c2.598,3.308,4.889,6.883,6.719,10.673l0,0l9.185-46.823
	l0,0c-3.142,3.439-6.64,6.555-10.404,9.358c-3.764,2.804-7.798,5.297-11.575,6.542c-3.777,1.247-7.301,1.247-10.568,0.281l0,0
	l9.1-43.833l14.144-0.129l0,0c6.417-0.058,12.808-0.834,17.981,3.398c5.177,4.231,9.123,13.115,13.072,21.998l0,0l7.002-32.084
	H364.2l0,0C366.955,11.439,369.71,12.832,371.519,14.866L371.519,14.866L371.519,14.866z M486.47,26.102
	c-7.17,6.121-13.639,14.251-17.957,23.116c-4.32,8.865-6.484,18.469-6.594,27.281c-0.109,8.813,1.837,16.836,5.428,24.19
	c3.592,7.354,8.83,14.039,15.299,18.562c6.469,4.525,14.164,6.889,21.23,7.978c7.064,1.087,13.498,0.899,18.591,0.183
	c5.094-0.711,8.847-1.947,12.261-3.847l0,0l20.252-42.066l0,0c-5.238,2.459-10.573,4.706-16.107,6.991
	c-5.533,2.286-11.267,4.606-17.346,5.337c-6.08,0.73-12.508-0.124-18.211-3.517c-5.703-3.389-10.689-9.316-13.275-15.955
	s-2.775-13.995-0.96-20.634c1.815-6.642,5.634-12.563,10.273-17.752c4.639-5.188,10.096-9.639,15.165-12.579
	c5.068-2.938,9.752-4.362,14.542-4.697l0,0l15.293,22.019l17.583-6.572L549.618,3.957l0,0c-3.487-0.118-6.98,0.023-11.117,0.471
	c-4.138,0.449-8.92,1.204-13.882,2.477c-4.96,1.271-10.1,3.058-16.603,6.01C501.511,15.865,493.642,19.979,486.47,26.102
	L486.47,26.102z"/>
</svg>
