<?xml version="1.0" encoding="utf-8"?>
<!-- Generator: Adobe Illustrator 13.0.0, SVG Export Plug-In . SVG Version: 6.00 Build 14948)  -->
<!DOCTYPE svg PUBLIC "-//W3C//DTD SVG 1.0//EN" "http://www.w3.org/TR/2001/REC-SVG-20010904/DTD/svg10.dtd">
<svg version="1.0" id="svg2" xmlns:svg="http://www.w3.org/2000/svg"
	 xmlns="http://www.w3.org/2000/svg" xmlns:xlink="http://www.w3.org/1999/xlink" x="0px" y="0px" width="792.9px"
	 height="133.48px" viewBox="0 0 792.9 133.48" enable-background="new 0 0 792.9 133.48" xml:space="preserve">
<path id="path11" fill="#525252" d="M499.205,34.623h-3.223c-15.793,0-28.677,12.884-28.677,28.636
	c0,15.753,12.887,28.635,28.677,28.635h3.223c15.793,0,28.676-12.882,28.676-28.635C527.881,47.506,514.994,34.623,499.205,34.623z
	 M498.65,81.994h-2.118c-10.291,0-18.736-8.445-18.736-18.736c0-10.29,8.448-18.735,18.736-18.735h2.118
	c10.333,0,18.736,8.445,18.736,18.735C517.392,73.549,508.983,81.994,498.65,81.994z M298.399,81.994h-2.121
	c-10.33,0-18.736-8.445-18.736-18.736c0-10.29,8.408-18.735,18.736-18.735h2.121c6.559,0,12.372,3.417,15.751,8.603h11.587
	c-4.123-10.804-14.574-18.501-26.788-18.501h-3.223c-15.791,0-28.675,12.884-28.675,28.636c0,15.753,12.885,28.636,28.675,28.636
	h3.223c13.237,0,24.432-9.072,27.692-21.29h-11.037C312.737,77.281,306.099,81.994,298.399,81.994z M561.7,34.623v9.309h14.531
	v47.961h11.548V43.932h14.574v-9.309H561.7L561.7,34.623z M530.549,43.932v47.963h11.548V67.892h16.968v-9.271h-16.968V43.932
	h16.968v-9.309h-28.599L530.549,43.932z M348.953,34.659c-0.432-0.038-0.862-0.038-1.295-0.038h-18.423l0.039,57.271h11.589V70.289
	h6.795c0.433,0,0.863,0.079,1.295,0.233c4.595,1.728,7.816,12.416,7.816,21.37h11.548c0-4.478-1.255-17.678-8.09-25.293
	C372.562,57.679,368.83,35.604,348.953,34.659z M348.953,60.941c-0.432,0.039-0.862,0.076-1.295,0.076h-6.795V43.933h6.795
	c0.433,0,0.863,0.04,1.295,0.078C359.755,45.11,359.755,59.839,348.953,60.941L348.953,60.941z M253.816,91.893h11.548V34.623
	h-11.548V91.893z M219.562,73.121l-16.063-38.498h-13.671v57.271h11.549V57.209l14.455,34.684h7.501l14.456-34.684v34.684h11.548
	v-57.27h-13.708L219.562,73.121L219.562,73.121z M443.7,49.666c0-4.241,2.71-5.734,5.616-5.734c2.908,0,5.654,1.493,5.654,5.734
	h9.313c-0.041-5.734-3.892-15.161-14.968-15.043c-11.078,0.118-14.927,9.269-14.927,15.043c0,17.442,22.904,15.479,22.904,26.283
	c0,3.847-4.163,6.637-7.974,6.637c-3.809,0-7.938-2.788-7.938-6.637h-9.31c0,9.977,5.814,15.944,17.247,15.944
	c11.472,0,17.242-5.968,17.242-15.944C466.559,58.621,443.7,59.88,443.7,49.666z M384.619,49.901h31.034
	c0.826,0.864,1.532,1.807,2.158,2.828h11.553c-0.788-2.004-1.728-3.889-2.91-5.617H373.82c-1.179,1.728-2.162,3.615-2.906,5.617
	h11.545C383.089,51.71,383.795,50.768,384.619,49.901L384.619,49.901z M398.997,43.577h2.237c3.422,0,6.679,0.903,9.468,2.474h15.05
	c-1.534-2.119-3.302-4.006-5.305-5.617h-40.618c-2.004,1.61-3.77,3.498-5.303,5.617h15.046
	C392.36,44.482,395.618,43.577,398.997,43.577z M380.535,56.581h11.863c1.218-1.298,2.789-2.278,4.556-2.787h-26.437
	c-0.629,1.807-1.058,3.691-1.294,5.616h10.526C379.946,58.427,380.183,57.523,380.535,56.581z M392.398,69.936h-11.863
	c-0.353-0.944-0.589-1.847-0.783-2.828h-10.528c0.238,1.92,0.666,3.81,1.295,5.616h26.437
	C395.188,72.21,393.617,71.229,392.398,69.936z M420.721,60.469c0.075,0.472,0.118,0.94,0.154,1.412h-10.448
	c0.041,0.432,0.078,0.904,0.078,1.373c0,0.474-0.039,0.941-0.078,1.374h10.448c-0.039,0.473-0.079,0.942-0.154,1.414h10.446
	c0.118-0.941,0.159-1.847,0.159-2.789s-0.043-1.846-0.159-2.787L420.721,60.469L420.721,60.469z M401.788,33.76h-3.342
	c-6.403,0-12.372,2.081-17.242,5.617h37.865C414.199,35.841,408.228,33.76,401.788,33.76z M407.872,56.581h11.865
	c0.314,0.941,0.59,1.845,0.787,2.828h10.527c-0.239-1.924-0.71-3.809-1.298-5.616h-26.476
	C405.085,54.302,406.657,55.284,407.872,56.581z M379.396,64.633h10.447c-0.039-0.433-0.077-0.902-0.077-1.373
	c0-0.468,0.038-0.941,0.077-1.374h-10.447c0.041-0.472,0.078-0.941,0.158-1.413h-10.487c-0.082,0.941-0.119,1.845-0.119,2.787
	c0,0.94,0.041,1.844,0.119,2.79h10.487C379.474,65.577,379.437,65.104,379.396,64.633L379.396,64.633z M398.446,92.759h3.342
	c6.44,0,12.411-2.085,17.283-5.621h-37.867C386.074,90.674,392.043,92.759,398.446,92.759z M401.233,82.938h-2.236
	c-3.379,0-6.639-0.907-9.427-2.476h-15.046c1.532,2.079,3.301,4.005,5.303,5.615h40.617c2.005-1.608,3.769-3.533,5.305-5.615
	h-15.047C407.913,82.031,404.654,82.938,401.233,82.938z M415.653,76.612h-31.034c-0.824-0.861-1.53-1.808-2.16-2.828h-11.546
	c0.745,2.008,1.729,3.888,2.907,5.619h52.634c1.183-1.728,2.122-3.609,2.91-5.619h-11.553
	C417.184,74.805,416.438,75.751,415.653,76.612L415.653,76.612z M419.737,69.936h-11.865c-1.217,1.294-2.828,2.274-4.594,2.789
	h26.476c0.588-1.808,1.06-3.695,1.298-5.619h-10.527C420.326,68.09,420.051,68.992,419.737,69.936L419.737,69.936z"/>
</svg>
