<?xml version="1.0" encoding="utf-8"?>
<!-- Generator: Adobe Illustrator 13.0.0, SVG Export Plug-In . SVG Version: 6.00 Build 14948)  -->
<!DOCTYPE svg PUBLIC "-//W3C//DTD SVG 1.0//EN" "http://www.w3.org/TR/2001/REC-SVG-20010904/DTD/svg10.dtd">
<svg version="1.0" id="svg2" xmlns:svg="http://www.w3.org/2000/svg"
	 xmlns="http://www.w3.org/2000/svg" xmlns:xlink="http://www.w3.org/1999/xlink" x="0px" y="0px" width="792.9px"
	 height="133.48px" viewBox="0 0 792.9 133.48" enable-background="new 0 0 792.9 133.48" xml:space="preserve">
<g id="g3964" transform="translate(-70.46875,-137.46624)">
	<path id="path2996" inkscape:connector-curvature="0" fill="#525252" d="M563.019,206.01c-10.42,0-18.943,8.523-18.943,18.943
		v2.107v0.838v36.043v0.322h1.661v-0.322h0.014v-35.205h33.015v-1.676h-18.344v-2.107c0-1.38,1.218-2.583,2.598-2.583h27.751v41.571
		h1.661v-56.215l26.564,0.042v-1.688L563.019,206.01L563.019,206.01z M563.019,207.671l27.751,0.042v1.55h-28.436
		c-8.046,0-14.462,6.43-14.462,14.477v3.321h-2.136v-2.107C545.736,215.445,553.51,207.671,563.019,207.671L563.019,207.671z
		 M593.813,209.207v0.685v54.05h1.382v-53.353h23.619v-1.382h-24.316H593.813z M562.334,210.646h28.436v1.214h-28.269
		c-6.569,0-11.894,5.31-11.894,11.88v3.321h-1.354v-3.321C549.254,216.42,555.016,210.646,562.334,210.646z M596.381,211.776v0.628
		v51.538h1.243v-50.924h21.189v-1.242H597.01H596.381z M562.501,213.087h28.269v1.438h-28.436c-5.392,0-9.744,4.352-9.744,9.743
		v2.792h-0.739v-3.321C551.851,217.834,556.597,213.087,562.501,213.087z M598.601,214.428v0.558v48.956h1.104V215.53h19.109v-1.103
		h-19.668H598.601z M562.334,215.614h28.436v1.047h-27.751c-4.552,0-8.293,3.741-8.293,8.292v2.107h-1.047v-2.792
		C553.679,219.47,557.533,215.614,562.334,215.614z M600.96,216.591v0.53v46.82h1.061v-46.275h16.793v-1.075H601.49H600.96z
		 M563.019,217.722h27.751v1.215h-27.751c-3.294,0-6.018,2.724-6.018,6.017v2.107h-1.214v-2.107
		C555.787,220.986,559.05,217.722,563.019,217.722z M603.389,218.853v0.461v44.628h0.907v-44.167h14.518v-0.922h-14.979H603.389z
		 M563.019,219.844h27.751v1.759h-27.751c-1.815,0-3.352,1.535-3.352,3.351v2.107h-1.759v-2.107
		C557.908,222.161,560.227,219.844,563.019,219.844z M605.762,221.519v0.377v42.046h0.768v-41.669h12.284v-0.754h-12.675H605.762z
		 M547.719,230.425v0.685v32.832h1.367v-32.134h29.679v-1.383h-30.362H547.719z M550.44,232.84v0.614v30.487h1.242v-29.859h27.082
		v-1.242h-27.695H550.44z M552.423,235.171v0.559v28.212h1.103v-27.667h25.239v-1.104h-25.798H552.423z M554.587,237.502v0.531
		v25.908h1.061v-25.378h23.117v-1.062h-23.647H554.587z M556.847,239.833v0.462v23.646h0.908v-23.187h21.01v-0.922h-21.456H556.847z
		 M559.515,242.221v0.377v21.344h0.753v-20.967h18.497v-0.754h-18.874H559.515z"/>
	<path id="path4038" inkscape:connector-curvature="0" fill="#525252" d="M510.727,139.229c-8.115,0-16.148,3.325-21.902,9.046
		l-0.071,0.055c-5.758,5.759-9.101,13.828-9.101,21.973c0,8.145,3.343,16.213,9.101,21.972l0.042,0.041
		c5.758,5.734,13.806,9.06,21.932,9.06c8.124,0,16.173-3.326,21.93-9.06l0.042-0.041c5.76-5.759,9.101-13.828,9.101-21.972
		c0-8.146-3.341-16.212-9.101-21.973C526.938,142.571,518.87,139.229,510.727,139.229L510.727,139.229z M510.727,140.903
		c7.685,0,15.351,3.179,20.785,8.613c5.434,5.435,8.613,13.1,8.613,20.786c0,7.685-3.18,15.35-8.613,20.785
		c-5.435,5.434-13.101,8.613-20.785,8.613c-7.687,0-15.352-3.179-20.787-8.613c-5.434-5.435-8.612-13.1-8.612-20.785
		c0-7.686,3.179-15.351,8.612-20.786C495.375,144.082,503.04,140.903,510.727,140.903z M510.727,142.355
		c-7.327,0-14.586,3-19.767,8.18c-5.182,5.182-8.181,12.439-8.181,19.768c0,7.327,2.999,14.584,8.181,19.767
		c5.181,5.181,12.439,8.18,19.767,8.18s14.584-3,19.767-8.18c5.18-5.182,8.193-12.439,8.193-19.767
		c0-7.328-3.014-14.585-8.193-19.768C525.311,145.354,518.054,142.355,510.727,142.355z M510.727,143.877
		c6.909,0,13.805,2.848,18.691,7.734c4.886,4.886,7.747,11.781,7.747,18.691c0,6.909-2.861,13.806-7.747,18.692
		c-4.887,4.886-11.782,7.732-18.691,7.732c-6.878,0-13.74-2.82-18.622-7.663l-0.07-0.069c-4.886-4.886-7.733-11.783-7.733-18.692
		c0-6.91,2.848-13.805,7.733-18.691C496.921,146.725,503.816,143.877,510.727,143.877z M510.727,145.091
		c-6.61,0-13.153,2.711-17.827,7.384c-4.673,4.674-7.385,11.216-7.385,17.827c0,6.609,2.712,13.152,7.385,17.826
		c4.674,4.674,11.217,7.384,17.827,7.384c6.608,0,13.151-2.71,17.825-7.384c4.674-4.674,7.385-11.217,7.385-17.826
		c0-6.61-2.711-13.153-7.385-17.827C523.878,147.802,517.335,145.091,510.727,145.091z M510.727,146.46
		c6.233,0,12.454,2.572,16.862,6.98c4.408,4.408,6.979,10.628,6.979,16.863c0,6.233-2.571,12.455-6.979,16.862
		c-4.408,4.409-10.629,6.98-16.862,6.98c-6.234,0-12.455-2.571-16.863-6.98c-4.409-4.407-6.979-10.628-6.979-16.862
		c0-6.234,2.57-12.455,6.979-16.863C498.271,149.031,504.492,146.46,510.727,146.46z M510.727,147.45
		c-5.985,0-11.916,2.445-16.151,6.673l-0.015,0.015c-4.236,4.236-6.686,10.173-6.686,16.165s2.449,11.928,6.686,16.164
		c4.237,4.237,10.174,6.688,16.166,6.688c5.99,0,11.928-2.451,16.164-6.688c4.236-4.236,6.687-10.172,6.687-16.164
		s-2.45-11.929-6.687-16.165C522.654,149.901,516.717,147.45,510.727,147.45L510.727,147.45z M510.727,148.665
		c5.656,0,11.299,2.337,15.299,6.337c4.001,4.001,6.338,9.643,6.338,15.3c0,5.657-2.337,11.299-6.338,15.299
		c-4,4-9.643,6.337-15.299,6.337c-5.645,0-11.274-2.326-15.272-6.309l-0.027-0.028c-4-4-6.338-9.643-6.338-15.299
		c0-5.658,2.338-11.299,6.338-15.3C499.427,151.003,505.068,148.665,510.727,148.665z M510.768,149.991
		c-5.323,0-10.6,2.182-14.364,5.946c-3.764,3.765-5.946,9.041-5.946,14.365c0,5.319,2.187,10.586,5.946,14.35v0.014
		c3.765,3.764,9.041,5.946,14.364,5.946s10.6-2.182,14.365-5.946l0.027-0.042c3.742-3.762,5.919-9.015,5.919-14.322
		c0-5.324-2.183-10.6-5.946-14.365C521.367,152.174,516.091,149.991,510.768,149.991z M510.768,151.052
		c5.031,0,10.053,2.082,13.611,5.639c3.557,3.558,5.625,8.58,5.625,13.611c0,5.031-2.068,10.052-5.625,13.61
		c-3.559,3.557-8.58,5.625-13.611,5.625s-10.053-2.068-13.61-5.625c-3.557-3.558-5.64-8.58-5.64-13.61
		c0-5.032,2.083-10.053,5.64-13.611C500.715,153.134,505.736,151.052,510.768,151.052z M510.768,152.727
		c-4.605,0-9.168,1.895-12.424,5.151c-3.256,3.257-5.151,7.819-5.151,12.424s1.896,9.167,5.151,12.423
		c3.256,3.257,7.818,5.151,12.424,5.151c4.606,0,9.167-1.894,12.424-5.151c3.257-3.257,5.151-7.818,5.151-12.423
		s-1.895-9.167-5.151-12.424C519.935,154.622,515.374,152.727,510.768,152.727z M510.768,153.649c4.354,0,8.702,1.792,11.781,4.871
		c3.08,3.08,4.872,7.428,4.872,11.783s-1.792,8.702-4.872,11.782c-3.079,3.08-7.427,4.871-11.781,4.871
		c-4.355,0-8.702-1.792-11.782-4.871c-3.078-3.08-4.871-7.427-4.871-11.782s1.793-8.703,4.871-11.783
		C502.065,155.441,506.412,153.649,510.768,153.649z M510.768,155.087c-3.988,0-7.943,1.632-10.763,4.453
		c-2.82,2.82-4.453,6.775-4.452,10.763c0,3.987,1.633,7.93,4.452,10.748l0.014,0.015c2.818,2.81,6.77,4.438,10.749,4.438
		c3.986,0,7.93-1.634,10.749-4.453c2.818-2.818,4.466-6.761,4.467-10.748c0.001-3.988-1.634-7.943-4.453-10.763
		C518.71,156.719,514.756,155.087,510.768,155.087L510.768,155.087z M510.768,155.841c3.779,0,7.547,1.571,10.219,4.243
		c2.671,2.673,4.23,6.439,4.229,10.219c-0.001,3.778-1.559,7.547-4.229,10.218c-2.672,2.671-6.44,4.229-10.219,4.229
		s-7.547-1.558-10.218-4.229c-2.673-2.671-4.229-6.44-4.229-10.218c-0.001-3.78,1.557-7.545,4.229-10.219
		C503.222,157.411,506.988,155.841,510.768,155.841z"/>
	<path id="path4038-4" inkscape:connector-curvature="0" fill="#525252" d="M510.727,203.861c-8.146,0-16.199,3.328-21.959,9.087
		c-5.759,5.76-9.102,13.842-9.102,21.986c0,8.146,3.343,16.2,9.102,21.958c5.76,5.761,13.813,9.102,21.959,9.102
		c8.144,0,16.198-3.341,21.958-9.102c5.758-5.758,9.114-13.813,9.114-21.958c0-8.145-3.356-16.227-9.114-21.986
		C526.925,207.189,518.87,203.861,510.727,203.861z M510.727,205.535c7.685,0,15.364,3.165,20.799,8.6
		c5.435,5.434,8.6,13.113,8.6,20.799s-3.165,15.337-8.6,20.772c-5.435,5.435-13.114,8.627-20.799,8.627
		c-7.675,0-15.34-3.179-20.772-8.6l-0.028-0.027c-5.434-5.436-8.599-13.087-8.599-20.772s3.165-15.365,8.599-20.799
		C495.361,208.7,503.04,205.535,510.727,205.535z M510.727,206.973c-7.327,0-14.586,3-19.767,8.181
		c-5.182,5.182-8.181,12.453-8.181,19.78c0,7.328,2.999,14.572,8.181,19.753c5.181,5.182,12.439,8.194,19.767,8.194
		s14.599-3.013,19.78-8.194c5.181-5.181,8.18-12.425,8.18-19.753c0-7.327-2.999-14.599-8.18-19.78
		C525.325,209.973,518.054,206.973,510.727,206.973z M510.727,208.494c6.909,0,13.79,2.849,18.677,7.733
		c4.886,4.887,7.762,11.797,7.762,18.706c0,6.91-2.876,13.793-7.762,18.678c-4.887,4.886-11.768,7.747-18.677,7.747
		c-6.91,0-13.792-2.861-18.679-7.747c-4.886-4.885-7.747-11.768-7.747-18.678c0-6.909,2.861-13.819,7.747-18.706
		C496.935,211.343,503.816,208.494,510.727,208.494z M510.727,209.71c-6.61,0-13.153,2.711-17.827,7.384
		c-4.673,4.674-7.385,11.23-7.385,17.84c0,6.61,2.712,13.153,7.385,17.827c4.674,4.674,11.217,7.384,17.827,7.384
		c6.608,0,13.151-2.71,17.825-7.384s7.385-11.217,7.385-17.827c0-6.609-2.711-13.166-7.385-17.84
		C523.878,212.421,517.335,209.71,510.727,209.71z M510.727,211.077c6.233,0,12.454,2.586,16.862,6.994s6.979,10.629,6.979,16.862
		c0,6.234-2.571,12.441-6.979,16.85c-4.408,4.407-10.629,6.993-16.862,6.993c-6.234,0-12.455-2.586-16.863-6.993
		c-4.409-4.408-6.979-10.615-6.979-16.85c0-6.233,2.57-12.454,6.979-16.862C498.271,213.663,504.492,211.077,510.727,211.077z
		 M510.727,212.069c-5.992,0-11.929,2.464-16.166,6.701c-4.236,4.235-6.686,10.173-6.686,16.164c0,5.992,2.449,11.915,6.686,16.151
		c4.237,4.236,10.174,6.701,16.166,6.701c5.99,0,11.928-2.465,16.164-6.701s6.687-10.159,6.687-16.151
		c0-5.991-2.45-11.929-6.687-16.164l-0.014-0.015C522.641,214.528,516.71,212.069,510.727,212.069z M510.727,213.282
		c5.656,0,11.299,2.338,15.299,6.338c4.001,4.001,6.338,9.656,6.338,15.313c0,5.658-2.337,11.3-6.338,15.301
		c-4,4-9.643,6.336-15.299,6.336c-5.658,0-11.3-2.336-15.3-6.336c-4-4.001-6.338-9.643-6.338-15.301
		c0-5.657,2.338-11.313,6.338-15.313C499.427,215.62,505.068,213.282,510.727,213.282z M510.768,214.623
		c-5.323,0-10.6,2.183-14.364,5.946c-3.764,3.765-5.946,9.041-5.946,14.364c0,5.324,2.183,10.586,5.946,14.351
		c3.765,3.765,9.041,5.947,14.364,5.947s10.6-2.183,14.365-5.947c3.764-3.765,5.946-9.026,5.946-14.351
		c0-5.323-2.183-10.6-5.946-14.364C521.367,216.806,516.091,214.623,510.768,214.623z M510.768,215.685
		c5.031,0,10.053,2.082,13.611,5.639c3.557,3.558,5.625,8.579,5.625,13.61s-2.068,10.039-5.625,13.598
		c-3.559,3.557-8.58,5.639-13.611,5.639s-10.053-2.082-13.61-5.639c-3.557-3.559-5.64-8.566-5.64-13.598s2.083-10.053,5.64-13.61
		C500.715,217.767,505.736,215.685,510.768,215.685z M510.782,217.372c-4.606,0-9.183,1.867-12.438,5.124s-5.151,7.833-5.151,12.438
		c0,4.606,1.896,9.153,5.151,12.41s7.832,5.151,12.438,5.151c4.605,0,9.139-1.895,12.396-5.151s5.165-7.804,5.165-12.41
		c0-4.604-1.908-9.181-5.165-12.438S515.388,217.372,510.782,217.372L510.782,217.372z M510.782,218.267
		c4.354,0,8.674,1.792,11.753,4.871c3.08,3.08,4.872,7.441,4.872,11.796c0,4.356-1.792,8.688-4.872,11.768
		c-3.079,3.081-7.399,4.887-11.753,4.887c-4.356,0-8.717-1.806-11.797-4.887c-3.078-3.079-4.871-7.411-4.871-11.768
		c0-4.354,1.793-8.716,4.871-11.796C502.065,220.059,506.426,218.267,510.782,218.267z M510.768,219.719
		c-3.988,0-7.943,1.632-10.763,4.452c-2.82,2.821-4.453,6.775-4.452,10.763c0,3.987,1.633,7.931,4.452,10.749h0.014
		c2.818,2.814,6.767,4.453,10.749,4.453c3.986,0,7.93-1.635,10.749-4.453c2.818-2.818,4.466-6.762,4.467-10.749
		s-1.634-7.941-4.453-10.763C518.71,221.351,514.756,219.719,510.768,219.719L510.768,219.719z M510.768,220.473
		c3.779,0,7.547,1.557,10.219,4.229c2.671,2.672,4.23,6.453,4.229,10.231s-1.559,7.534-4.229,10.205
		c-2.672,2.671-6.44,4.229-10.219,4.229s-7.547-1.559-10.218-4.229c-2.673-2.671-4.229-6.427-4.229-10.205s1.557-7.56,4.229-10.231
		C503.222,222.029,506.988,220.473,510.768,220.473z"/>
	<path id="path4038-9" inkscape:connector-curvature="0" fill="#525252" d="M426.525,139.24c-17.127,0-31.115,13.83-31.115,30.957
		c0,17.246,13.988,31.115,31.115,31.115c2.266,0,4.571-0.239,6.677-0.715v-1.669c-2.106,0.557-4.411,0.755-6.677,0.755
		c-16.212,0-29.367-13.154-29.367-29.486c0-16.214,13.154-29.288,29.367-29.288c2.266,0,4.571,0.239,6.677,0.755v-1.749
		C431.096,139.479,428.791,139.24,426.525,139.24L426.525,139.24z M426.525,142.38c-15.418,0-27.896,12.438-27.896,27.817
		c0,15.498,12.478,28.055,27.896,28.055c2.266,0,4.571-0.317,6.677-0.835v-1.51c-2.106,0.518-4.411,0.835-6.677,0.835
		c-14.583,0-26.386-11.882-26.386-26.545c0-14.544,11.803-26.307,26.386-26.307c2.266,0,4.571,0.279,6.677,0.834v-1.51
		C431.096,142.658,428.791,142.38,426.525,142.38z M426.525,145.003c-13.908,0-25.154,11.366-25.154,25.194
		c0,13.988,11.246,25.313,25.154,25.313c2.345,0,4.571-0.318,6.677-0.914v-1.431c-2.106,0.676-4.332,0.993-6.677,0.993
		c-13.153,0-23.883-10.729-23.883-23.962c0-13.074,10.73-23.724,23.883-23.724c2.345,0,4.571,0.318,6.677,0.994v-1.55
		C431.096,145.32,428.87,145.003,426.525,145.003z M426.525,147.388c-12.637,0-22.809,10.251-22.809,22.809
		c0,12.677,10.172,22.81,22.809,22.81c2.345,0,4.571-0.398,6.677-0.993v-1.232c-2.106,0.715-4.332,1.073-6.677,1.073
		c-11.921,0-21.657-9.656-21.657-21.657c0-11.882,9.736-21.657,21.657-21.657c2.345,0,4.571,0.358,6.677,1.034v-1.193
		C431.096,147.744,428.87,147.388,426.525,147.388L426.525,147.388z M426.525,149.97c-11.166,0-20.306,9.1-20.306,20.227
		c0,11.246,9.14,20.386,20.306,20.386c2.345,0,4.571-0.398,6.677-1.153v-1.152c-2.027,0.834-4.332,1.231-6.677,1.231
		c-10.65,0-19.233-8.663-19.233-19.313s8.583-19.154,19.233-19.154c2.345,0,4.65,0.358,6.677,1.113v-1.032
		C431.096,150.328,428.87,149.97,426.525,149.97z M426.525,152.712c-9.656,0-17.564,7.908-17.564,17.485
		c0,9.815,7.908,17.643,17.564,17.643c2.345,0,4.65-0.476,6.677-1.311v-1.073c-2.027,0.914-4.332,1.471-6.677,1.471
		c-9.219,0-16.65-7.471-16.65-16.73c0-9.14,7.431-16.571,16.65-16.571c2.345,0,4.65,0.517,6.677,1.431v-1.073
		C431.175,153.149,428.87,152.712,426.525,152.712z M426.525,154.977c-8.345,0-15.219,6.835-15.219,15.22
		c0,8.345,6.875,15.22,15.219,15.22c2.424,0,4.65-0.557,6.677-1.55v-0.915c-1.948,1.073-4.252,1.669-6.677,1.669
		c-7.987,0-14.464-6.438-14.464-14.425s6.478-14.464,14.464-14.464c2.424,0,4.729,0.636,6.677,1.668v-0.834
		C431.175,155.573,428.949,154.977,426.525,154.977z"/>
	<path id="path4257" inkscape:connector-curvature="0" fill="#525252" d="M376.367,141.672v59.998h1.674v-59.998H376.367z
		 M378.879,141.672v59.998h1.521v-59.998H378.879z M381.377,141.672v59.998h1.368v-59.998H381.377z M383.793,141.672v59.998h1.214
		v-59.998H383.793z M386.291,141.672v59.998h1.061v-59.998H386.291z M388.79,141.672v59.998h0.922v-59.998H388.79z M391.332,141.672
		v59.998h0.767v-59.998H391.332z"/>
	<path id="path3134" inkscape:connector-curvature="0" fill="#525252" d="M320.696,142.9l-0.307,2.178l-7.9,56.591h1.745
		l7.523-54.205l19.711,29.245l0.67,1.075l0.685-1.075l19.682-29.245l7.553,54.205h1.674l-7.831-56.591l-0.321-2.178l-1.187,1.829
		l-20.255,30.041l-20.227-30.041L320.696,142.9z M322.901,151.401l-0.307,1.983l-6.686,48.286h1.521l6.394-46.136l17.714,26.23
		l0.601,0.991l0.615-0.991l17.728-26.23l6.352,46.136h1.55l-6.715-48.286l-0.279-1.983l-1.061,1.591l-18.189,27.026l-18.175-27.026
		L322.901,151.401z M324.661,158.115l-0.238,1.829l-5.848,41.725h1.437l5.557-39.854l16.04,23.884l0.53,0.824l0.545-0.824
		l16.053-23.884l5.514,39.854h1.396l-5.807-41.725l-0.195-1.829l-0.992,1.508l-16.514,24.485l-16.416-24.485L324.661,158.115z
		 M326.252,164.956l-0.224,1.591l-4.872,35.122h1.214l4.635-33.377l14.602,21.734l0.53,0.712l0.545-0.712l14.573-21.734
		l4.648,33.377h1.243l-4.886-35.122l-0.209-1.591l-0.908,1.339l-15.006,22.224l-14.978-22.224L326.252,164.956z M327.844,171.195
		l-0.224,1.34l-4.034,29.134h1.075l3.796-27.612l13.234,19.71l0.446,0.67l0.46-0.67l13.15-19.71l3.895,27.612h1.032l-4.005-29.134
		l-0.168-1.34l-0.837,1.103l-13.527,20.186l-13.526-20.186L327.844,171.195z M329.211,177.631l-0.153,1.145l-3.183,22.894h0.992
		l2.959-21.498l11.936,17.687l0.376,0.628l0.391-0.628l11.95-17.687l2.946,21.498h0.99l-3.182-22.894l-0.154-1.145l-0.683,0.992
		l-12.257,18.203l-12.243-18.203L329.211,177.631z M330.579,183.787l-0.139,0.991l-2.359,16.891h0.754l2.206-15.732l10.567,15.732
		h1.075l10.566-15.732l2.178,15.732h0.796l-2.374-16.891l-0.167-0.991l-0.517,0.837l-11.028,16.444l-11.014-16.444L330.579,183.787z
		"/>
	<path id="path3994" inkscape:connector-curvature="0" fill="#525252" d="M458.071,138.488c-11.28,0-20.464,9.144-20.464,20.464
		v42.674h1.759v-42.674c0-10.376,8.368-18.719,18.706-18.719s18.678,8.341,18.678,18.719c0,3.416-0.96,6.65-2.611,9.437
		c-0.289-0.293-0.586-0.577-0.893-0.851c1.419-2.556,2.233-5.507,2.233-8.585c0-9.611-7.837-17.407-17.408-17.407
		c-9.609,0-17.435,7.796-17.435,17.407v42.674h1.591v-42.674c0-8.747,7.094-15.816,15.844-15.816
		c8.709,0,15.816,7.069,15.816,15.816c0,2.694-0.683,5.289-1.885,7.552c-0.281-0.213-0.572-0.416-0.864-0.615
		c1.101-2.048,1.73-4.435,1.73-6.938c0-8.211-6.624-14.824-14.797-14.824c-8.173,0-14.811,6.611-14.811,14.824v42.674h1.423v-42.674
		c0-7.443,5.983-13.387,13.387-13.387c7.405,0,13.359,5.942,13.359,13.387c0,2.23-0.56,4.35-1.521,6.17
		c-0.35-0.202-0.698-0.391-1.061-0.572c0.925-1.712,1.396-3.637,1.396-5.598c0-6.74-5.469-12.201-12.172-12.201
		c-6.703,0-12.158,5.46-12.158,12.201v42.674h1.284v-42.674c0-6.055,4.861-10.93,10.875-10.93c6.014,0,10.888,4.875,10.888,10.93
		c0,1.791-0.425,3.533-1.27,5.068c-0.461-0.194-0.934-0.371-1.41-0.531c0.735-1.354,1.172-2.887,1.172-4.537
		c0-5.258-4.159-9.423-9.38-9.423c-5.221,0-9.367,4.165-9.367,9.423v42.674h1.103v-42.674c0-4.676,3.63-8.306,8.264-8.306
		c4.634,0,8.279,3.63,8.279,8.306c0,1.531-0.438,2.948-1.159,4.202c-0.461-0.126-0.923-0.227-1.396-0.321
		c0.778-1.081,1.201-2.432,1.201-3.881c0-3.867-3.097-6.924-6.924-6.924c-3.827,0-6.951,3.053-6.951,6.924v42.674h0.963v-42.674
		c0-3.361,2.663-5.961,5.988-5.961s5.961,2.597,5.961,5.961c0,1.411-0.437,2.692-1.229,3.63l0.112,0.097
		c-0.863-0.131-1.743-0.217-2.639-0.237c1.188-0.761,2.01-2.05,2.01-3.49c0-2.29-1.924-4.216-4.215-4.216
		c-2.326,0-4.243,1.926-4.243,4.216v0.321v42.353h0.795v-22.572c1.146,0.157,2.395,0.279,4.216,0.279h0.029h0.041
		c0.874-0.079,0.802-0.07,0.921-0.07c1.573,0,2.932,1.352,2.932,2.973v19.39h1.759v-19.39c0-2.59-2.131-4.732-4.691-4.732
		c-0.11,0-0.293,0.021-0.991,0.083c-0.034,0-0.051,0-0.083,0c-1.819-0.004-2.977-0.125-4.132-0.292v-1.271
		c1.146,0.193,2.379,0.294,4.049,0.294h0.028h0.014c0.831-0.039,0.917-0.042,1.117-0.042c3.114,0,5.64,2.45,5.64,5.64v19.71h1.591
		v-19.71c0-4.042-3.271-7.231-7.231-7.231c-0.192,0-0.395,0.006-1.158,0.042c-0.019,0-0.024,0-0.042,0
		c-1.719-0.002-2.889-0.115-4.007-0.321v-1.075c1.142,0.228,2.373,0.362,4.049,0.362h0.042h0.028
		c0.828-0.078,0.889-0.083,1.088-0.083c4.546,0,8.097,3.602,8.097,8.152v19.864h1.438v-19.864c0-5.305-4.226-9.577-9.535-9.577
		c-0.188,0-0.434,0.017-1.158,0.084v-0.014c-1.744,0-2.914-0.146-4.049-0.392v-1.256c1.103,0.29,2.307,0.502,3.853,0.502h0.029
		h0.042c0.694-0.077,0.966-0.083,1.284-0.083c6.016,0,10.888,4.833,10.888,10.888v19.71h1.271v-19.71
		c0-6.74-5.458-12.159-12.159-12.159c-0.302,0-0.687,0.014-1.354,0.083c-0.025,0-0.043,0.001-0.07,0
		c-1.537-0.007-2.67-0.245-3.783-0.559v-1.633c1.088,0.405,2.231,0.684,3.448,0.684h1.759c7.496,0,13.513,5.899,13.513,13.43v19.864
		h1.103v-19.864c0-8.126-6.533-14.546-14.616-14.546h-1.759c-1.189,0-2.318-0.31-3.448-0.768v-1.521
		c1.002,0.541,2.155,0.936,3.448,0.936c0.53,0,1.425-0.07,1.759-0.07c8.881,0,16.124,7.203,16.124,16.123v19.71h0.963v-19.71
		c0-9.439-7.688-17.086-17.086-17.086c-0.461,0-1.335,0.083-1.759,0.083c-1.287,0-2.442-0.453-3.448-1.075v-2.611
		c0.768,1.109,1.984,1.899,3.448,1.899h0.042l0.027-0.015c0.079-0.013,0.246-0.002,0.377,0c0.009,0.001,0.018,0.015,0.028,0.015
		c0.128,0.003,0.216-0.014,0.362,0c0.311,0.029,0.639,0.07,0.921,0.07c10.559,0,19.152,8.363,19.152,18.957v19.473h0.797v-19.473
		c0-4.731-1.657-9.027-4.411-12.396c1.981-3.148,3.141-6.869,3.141-10.805C478.508,147.635,469.352,138.488,458.071,138.488
		L458.071,138.488z M458.071,155.533c1.842,0,3.419,1.579,3.419,3.42c0,1.653-1.362,3.201-3.056,3.378
		c-0.122-0.001-0.245-0.016-0.363,0c-1.819,0-3.27-1.434-3.448-3.141v-0.237C454.623,157.112,456.184,155.533,458.071,155.533z"/>
	<path id="path3994-9-8-5-6-7" inkscape:connector-curvature="0" fill="#525252" d="M459.83,204.628
		c-10.538,0-19.096,8.56-19.096,19.096c0,10.694,8.558,19.251,19.096,19.251c1.794,0,3.267,1.423,3.267,2.651
		c0,1.949-1.482,3.352-3.267,3.352c-1.784,0-3.28-1.402-3.28-3.352h-0.753c0,2.345,1.844,4.105,4.034,4.105
		c2.19,0,4.035-1.761,4.035-4.105c0-1.789-1.855-3.405-4.035-3.405c-10.126,0-18.342-8.208-18.342-18.497
		c0-10.126,8.216-18.342,18.342-18.342c10.126,0,18.329,8.216,18.329,18.342h0.768C478.926,213.188,470.367,204.628,459.83,204.628z
		 M459.83,207.378c-8.991,0-16.36,7.355-16.36,16.346c0,9.224,7.38,16.277,16.36,16.277c3.145,0,5.696,2.882,5.696,5.625
		c0,3.513-2.49,5.654-5.696,5.654c-3.205,0-5.709-2.142-5.709-5.654h-0.907c0,3.96,2.987,6.576,6.616,6.576
		c3.63,0,6.617-2.616,6.617-6.576c0-3.296-2.927-6.547-6.617-6.547c-8.504,0-15.438-6.616-15.438-15.355
		c0-8.492,6.945-15.438,15.438-15.438s15.439,6.946,15.439,15.438h0.908C476.177,214.734,468.821,207.378,459.83,207.378z
		 M459.83,209.724c-7.718,0-14,6.244-14,14c0,7.759,6.28,14.086,14,14.086c4.446,0,7.929,3.538,7.929,7.816
		c0,4.238-3.489,7.846-7.929,7.846c-2.25,0-4.221-0.725-5.625-2.052c-1.405-1.326-2.276-3.253-2.276-5.794h-1.06
		c0,2.787,0.985,5.041,2.61,6.576c1.626,1.534,3.873,2.331,6.352,2.331c5.018,0,8.99-4.084,8.99-8.907
		c0-4.859-3.978-8.878-8.99-8.878c-7.14,0-12.94-5.839-12.94-13.024c0-7.184,5.796-12.939,12.94-12.939
		c7.186,0,12.941,5.754,12.941,12.939h1.061C473.831,215.969,467.586,209.724,459.83,209.724z M459.83,212.111
		c-6.409,0-11.615,5.205-11.615,11.613c0,6.409,5.19,11.853,11.615,11.853c5.775,0,10.442,4.302,10.442,10.05
		c0,5.791-4.698,10.554-10.442,10.554c-5.743,0-10.399-4.76-10.399-10.554h-1.215c0,6.447,5.199,11.769,11.615,11.769
		c6.417,0,11.656-5.318,11.656-11.769c0-6.41-5.271-11.265-11.656-11.265c-5.736,0-10.399-4.886-10.399-10.638
		c0-5.75,4.649-10.399,10.399-10.399c5.751,0,10.442,4.651,10.442,10.399h1.214C471.485,217.314,466.238,212.111,459.83,212.111z
		 M459.83,214.61c-5.085,0-9.116,4.03-9.116,9.114c0,5.086,4.049,8.907,9.116,8.907c7.1,0,12.787,5.767,12.787,12.995
		c0,7.23-5.68,12.857-12.787,12.857c-7.065,0-12.787-5.629-12.787-12.857h-1.368c0,7.955,6.358,14.225,14.155,14.225
		c7.835,0,14.155-6.273,14.155-14.225c0-7.949-6.313-14.363-14.155-14.363c-4.391,0-7.747-3.165-7.747-7.539
		c0-4.371,3.375-7.733,7.747-7.733c4.373,0,7.776,3.366,7.776,7.733h1.367C468.973,218.636,464.915,214.61,459.83,214.61z
		 M459.83,216.8c-3.824,0-6.924,3.101-6.924,6.924c0,3.825,3.1,6.925,6.924,6.925c8.314,0,15.131,7.068,15.131,14.978
		c0,8.786-6.781,15.174-15.131,15.174s-15.132-6.388-15.132-15.174h-1.521c0,9.575,7.52,16.696,16.654,16.696
		c9.135,0,16.654-7.121,16.654-16.696c0-8.778-7.483-16.499-16.654-16.499c-3.011,0-5.402-2.392-5.402-5.403
		c0-3.01,2.392-5.401,5.402-5.401c3.011,0,5.403,2.392,5.403,5.401h1.508C466.74,219.901,463.654,216.8,459.83,216.8z
		 M459.83,219.23c-2.455,0-4.494,2.04-4.494,4.494c0,2.456,2.04,4.496,4.494,4.496c9.874-0.076,17.882,7.984,17.882,17.406
		c0,9.922-8.001,17.868-17.882,17.868c-9.881,0-17.882-7.946-17.882-17.868h-1.675c0,10.823,8.774,19.544,19.557,19.544
		s19.543-8.721,19.543-19.544c0-10.362-8.76-19.157-19.543-19.082c-0.005,0-0.009,0-0.014,0c-1.513-0.007-2.806-1.305-2.806-2.82
		c0-1.518,1.302-2.818,2.82-2.818c1.519,0,2.82,1.301,2.82,2.818h1.675C464.324,221.27,462.285,219.23,459.83,219.23L459.83,219.23z
		"/>
</g>
</svg>
