<?xml version="1.0" encoding="utf-8"?>
<!-- Generator: Adobe Illustrator 13.0.0, SVG Export Plug-In . SVG Version: 6.00 Build 14948)  -->
<!DOCTYPE svg PUBLIC "-//W3C//DTD SVG 1.0//EN" "http://www.w3.org/TR/2001/REC-SVG-20010904/DTD/svg10.dtd">
<svg version="1.0" id="svg2" xmlns:svg="http://www.w3.org/2000/svg"
	 xmlns="http://www.w3.org/2000/svg" xmlns:xlink="http://www.w3.org/1999/xlink" x="0px" y="0px" width="792.9px"
	 height="133.48px" viewBox="0 0 792.9 133.48" enable-background="new 0 0 792.9 133.48" xml:space="preserve">
<g transform="translate(677.75822,-316.64792)">
	<path fill="#525252" d="M-412.4,349.994h7.706v20.383h-7.706c-3.837-12.636-22.93-14.527-34.898-14.527
		c-10.471,0-18.292,2.753-18.292,8.07c0,6.147,14.729,6.319,26.638,7.932c15.333,2.077,37.699,1.721,37.699,21.762
		c0,15.816-21.007,21.184-34.163,21.213c-23.55,0.052-30.86-6.733-36.249-6.733c-1.494,0-2.265,1.446-2.265,4.335h-7.701V389.56
		h7.701c2.894,13.785,24.091,16.791,33.021,16.791c6.333,0,22.622-1.243,22.622-8.77c0-7.134-10.453-6.764-23.154-8.575
		c-13.918-1.989-41.369-2.423-41.369-20.935c0-14.28,16.002-21.118,33.959-21.118c20.858,0,31.17,6.774,34.263,6.774
		C-413.131,353.728-412.4,352.386-412.4,349.994L-412.4,349.994z"/>
	<path fill="#525252" d="M-340.127,346.954c-28.244,0-46.945,14.539-46.945,33.936c0,19.398,18.704,33.938,46.945,33.938
		c28.243,0,46.946-14.539,46.946-33.938C-293.181,361.492-311.883,346.954-340.127,346.954z M-340.127,356.004
		c16.198,0,26.924,10.661,26.924,24.886c0,14.225-10.726,24.887-26.924,24.887c-16.197,0-26.923-10.662-26.923-24.887
		C-367.05,366.665-356.324,356.004-340.127,356.004z"/>
	<path fill="#525252" d="M-198.583,411.065h-12.419l-49.568-42.407v31.534c0,2.115,1.059,3.172,3.172,3.172h9.063v7.701h-37.063
		v-7.701h9.063c2.114,0,3.173-1.057,3.173-3.172v-38.604c0-2.113-1.059-3.172-3.173-3.172h-9.063v-7.702h31.082l43.137,36.88
		v-26.006c0-2.113-1.057-3.172-3.173-3.172h-9.063v-7.702h37.063v7.702h-9.059c-2.114,0-3.171,1.059-3.171,3.172V411.065
		L-198.583,411.065z"/>
	<path fill="#525252" d="M-118.106,350.714h36.421v7.702h-7.148c-3.033,0-5.566,1.059-7.603,3.172l-24.388,26.006v12.598
		c0,2.115,1.058,3.172,3.172,3.172h9.062v7.701h-43.95v-7.701h9.062c2.114,0,3.171-1.057,3.171-3.172V388.41l-25.012-26.823
		c-2.051-2.113-4.59-3.172-7.607-3.172h-7.16v-7.702h44.765v7.702h-4.439c-1.089,0-1.783,0.377-2.086,1.133
		c-0.301,0.755-0.182,1.434,0.364,2.039l14.769,15.767l14.772-15.767c0.543-0.604,0.665-1.283,0.361-2.039
		c-0.301-0.756-0.995-1.133-2.084-1.133h-4.44V350.714z"/>
</g>
</svg>
