<?xml version="1.0" encoding="utf-8"?>
<!-- Generator: Adobe Illustrator 13.0.0, SVG Export Plug-In . SVG Version: 6.00 Build 14948)  -->
<!DOCTYPE svg PUBLIC "-//W3C//DTD SVG 1.0//EN" "http://www.w3.org/TR/2001/REC-SVG-20010904/DTD/svg10.dtd">
<svg version="1.0" id="svg2" xmlns:svg="http://www.w3.org/2000/svg"
	 xmlns="http://www.w3.org/2000/svg" xmlns:xlink="http://www.w3.org/1999/xlink" x="0px" y="0px" width="792.9px"
	 height="133.48px" viewBox="0 0 792.9 133.48" enable-background="new 0 0 792.9 133.48" xml:space="preserve">
<path id="path2883" fill="#525252" d="M194.882,101.4c7.217-0.42,9.205-1.47,14.952-15.478l23.001-55.508h1.778l28.329,63.243
	c2.716,6.069,5.229,7.742,10.661,7.742v3.137c-7.209-0.105-11.809-0.315-15.987-0.315c-4.187,0-8.688,0.21-16.002,0.315V101.4
	c5.859,0,7.532-1.042,7.532-3.871c0-1.147-0.728-3.346-2.926-8.566l-4.179-9.829h-23.947l-3.031,8.471
	c-2.611,7.314-2.829,8.777-2.829,9.827c0,2.709,1.253,3.864,7.735,3.969v3.137c-8.98-0.315-10.031-0.315-12.536-0.315
	c-2.618,0-3.654,0-12.551,0.315V101.4z M240.36,75.158L229.07,48.292l-9.611,26.866H240.36"/>
<path id="path2885" fill="#525252" d="M274.458,62.928c2.618-0.42,12.753-3.345,18.298-6.167v8.156
	c8.05-6.385,12.543-8.156,17.66-8.156c6.7,0,10.563,3.347,12.026,8.156c7.105-5.755,12.754-8.156,17.563-8.156
	c6.586,0,12.341,3.977,12.341,13.79v26.146c0,3.758,2.401,4.703,6.377,4.703v3.137c-3.039-0.105-8.995-0.315-12.649-0.315
	c-3.653,0-9.625,0.21-12.648,0.315V101.4c5.424,0,7-0.84,7-6.797V72.337c0-7.314-4.396-8.268-7.427-8.268
	c-2.925,0-6.376,1.261-10.45,4.397v28.013c0,3.354,1.883,4.921,5.124,4.921h0.841v3.137c-3.346-0.105-8.688-0.315-11.921-0.315
	c-3.248,0-8.575,0.21-11.921,0.315V101.4h0.84c3.241,0,5.117-1.567,5.117-4.921v-25.71c0-4.284-3.136-6.7-7.728-6.7
	c-2.934,0-6.692,1.575-10.143,4.397v28.013c0,3.354,1.883,4.921,5.116,4.921h0.841v3.137c-3.346-0.105-8.68-0.315-11.914-0.315
	c-3.248,0-8.575,0.21-11.921,0.315V101.4h0.833c3.241,0,5.124-1.567,5.124-4.921V69.719c0-2.82-0.735-4.074-3.451-4.074
	c-0.63,0-1.778,0.211-2.926,0.623V62.928"/>
<path id="path2887" fill="#525252" d="M364.703,90.732h3.128c1.358,8.688,7.008,11.396,12.341,11.396
	c5.019,0,8.883-2.604,8.883-6.58c0-8.995-23.932-8.793-23.932-24.472c0-8.043,5.747-14.315,17.87-14.315
	c4.292,0,8.672,0.729,13.174,1.981l0.42,12.229h-2.926c-0.945-6.054-5.124-11.081-11.606-11.081c-4.291,0-7.734,2.304-7.734,6.481
	c0,8.891,23.94,9.417,23.94,24.158c0,8.567-6.902,14.741-19.859,14.741c-3.346,0-8.996-0.944-13.699-3.143V90.732"/>
<path id="path2889" fill="#525252" d="M411.337,62.614h-8.471v-3.136c5.327-3.144,15.785-11.291,20.385-17.038v15.357h14.224
	l-1.681,4.816h-12.543v30.009c0,3.129,1.47,5.747,5.123,5.747c2.296,0,4.704-1.463,6.902-3.556l1.771,2.925l-11.396,7.21
	c-0.832,0.211-1.665,0.322-2.399,0.322c-5.432,0-11.914-3.248-11.914-13.804V62.614"/>
<path id="path2891" fill="#525252" d="M439.747,62.928c1.989-0.42,12.14-3.345,17.684-6.167v13.377h0.203
	c5.019-10.766,9.505-13.377,13.908-13.377c1.351,0,2.709,0.204,4.066,0.623v14.848h-2.716c-0.833-2.514-2.401-4.39-6.062-4.39
	c-2.821,0-6.271,1.981-9.4,5.852v22.785c0,3.354,1.875,4.921,5.117,4.921h0.832v3.137c-3.347-0.105-8.673-0.315-11.711-0.315
	c-3.339,0-8.672,0.21-11.493,0.315V101.4h0.833c3.241,0,5.123-1.567,5.123-4.921V69.719c0-2.82-0.735-4.074-3.451-4.074
	c-0.622,0-1.777,0.211-2.934,0.623V62.928"/>
<path id="path2893" fill="#525252" d="M526.631,99.525c-1.253,0-11.501,3.855-15.469,5.746c-1.051-1.681-1.575-4.186-1.681-5.746
	c-6.054,4.179-12.432,5.746-16.311,5.746c-6.167,0-11.599-5.544-11.599-10.668c0-9.093,8.471-13.279,27.294-15.574v-9.723
	c0-5.965-4.299-8.162-8.162-8.162c-3.031,0-6.167,1.05-6.167,5.228c0,1.051,0.524,2.935,1.463,4.923l-11.704,4.695
	c-1.261-1.875-1.68-3.549-1.68-5.438c0-8.043,13.586-13.79,24.149-13.79c5.964,0,14.007,4.284,14.007,14.21v23.737
	c0,2.296,0.63,2.723,2.206,2.723c0.518,0,1.245-0.111,3.652-1.05V99.525z M508.866,81.745c-9.101,0.945-14.54,5.229-14.54,9.828
	c0,4.704,2.724,7.63,7.218,7.63c2.716,0,5.642-0.728,7.525-2.198c-0.099-0.931-0.203-2.499-0.203-3.977V81.745"/>
<path id="path2895" fill="#525252" d="M561.239,29.259c4.501,0,14.329-2.506,19.348-4.703v71.091c0,2.093,0.834,3.031,2.717,3.031
	c1.147,0,1.988-0.413,3.136-1.043v3.137c-3.031,0-12.124,3.45-15.89,5.131c-0.729-1.261-1.576-3.669-1.883-5.447
	c-4.285,3.031-9.626,4.816-14.952,4.816c-11.712,0-21.847-9.625-21.847-22.273c0-14.531,10.346-26.236,24.15-26.236
	c5.852,0,8.363,0.526,12.648,2.191V35.216c0-1.875-0.729-3.233-4.179-3.233c-1.471,0-2.199,0.104-3.249,0.412V29.259z
	 M568.667,64.19c-3.872-3.046-7.21-4.3-11.599-4.3c-8.058,0-12.866,7.322-12.866,17.458c0,10.256,6.797,21.854,17.037,21.854
	c3.451,0,5.754-1.155,7.428-1.883V64.19"/>
<path id="path2897" fill="#525252" d="M588.772,25.687h2.528c1.53,0,2.198,0.639,2.198,1.861c0,1.103-0.78,1.636-1.733,1.786
	l2.011,3.098h-0.646l-2.025-3.113h-1.755v3.113h-0.578V25.687z M589.351,28.808h1.44c1.021,0,2.13-0.098,2.13-1.274
	c0-1.036-0.9-1.336-1.71-1.336h-1.86V28.808z M585.72,29.056c0,2.889,2.228,5.207,5.146,5.207c2.91,0,5.109-2.334,5.109-5.215
	c0-2.918-2.184-5.191-5.109-5.191C587.917,23.857,585.72,26.123,585.72,29.056z M596.553,29.056c0,3.158-2.551,5.709-5.71,5.709
	c-3.158,0-5.709-2.551-5.709-5.709c0-3.151,2.551-5.701,5.709-5.701C594.002,23.355,596.553,25.905,596.553,29.056"/>
</svg>
