<?xml version="1.0" encoding="UTF-8" standalone="no"?>
<!-- Created with Inkscape (http://www.inkscape.org/) -->

<svg
   xmlns:dc="http://purl.org/dc/elements/1.1/"
   xmlns:cc="http://creativecommons.org/ns#"
   xmlns:rdf="http://www.w3.org/1999/02/22-rdf-syntax-ns#"
   xmlns:svg="http://www.w3.org/2000/svg"
   xmlns="http://www.w3.org/2000/svg"
   version="1.0"
   width="409.38898"
   height="29.858309"
   viewBox="0 0 409.38896 29.85831"
   id="svg2"
   xml:space="preserve"><metadata
   id="metadata57"><rdf:RDF><cc:Work
       rdf:about=""><dc:format>image/svg+xml</dc:format><dc:type
         rdf:resource="http://purl.org/dc/dcmitype/StillImage" /><dc:title></dc:title></cc:Work></rdf:RDF></metadata><defs
   id="defs55" />
<g
   transform="translate(-192.81102,-57.389)"
   id="g3">
	<path
   d="m 429.209,87.06 h 9.813 c 1.304,0 2.362,-0.65 2.362,-1.89 0,-1.237 -1.059,-1.949 -2.362,-1.949 h -9.813"
   id="path5"
   style="fill:#525252" />
	<path
   d="m 404.209,57.73 c -1.305,0 -2.363,0.65 -2.363,1.888 l 0.016,8.937 c 0,1.305 -0.652,2.362 -1.891,2.362 l -2.539,0.048 c -1.307,0 -2.363,0.651 -2.363,1.889 l -0.145,12.186 c 0,1.236 1.057,1.948 2.364,1.948 l 19.108,0.073 c 1.306,0 2.365,-0.65 2.365,-1.89 0,-1.237 -1.06,-1.949 -2.365,-1.949 l -14.99,0.038 c -1.306,0 -2.362,-0.712 -2.362,-1.949 l 0.143,-4.554 c 0,-1.237 1.057,-1.889 2.363,-1.889 l 14.847,0.021 c 1.306,0 2.365,-0.65 2.365,-1.889 0,-1.239 -1.06,-1.95 -2.365,-1.95 l -3.296,-0.027 c -1.305,0 -2.363,-0.713 -2.363,-1.951 l 0.145,-5.583 c 0,-1.238 1.058,-1.888 2.363,-1.888 l 3.151,-0.028 c 1.306,0 2.365,-0.651 2.365,-1.889 0,-1.238 -1.06,-1.949 -2.365,-1.949 L 404.209,57.73 z"
   id="path7"
   style="fill:#525252" />
	<path
   d="m 584.375,74.444 c -1.303,0 -2.361,-0.651 -2.361,-1.889 l -0.145,-13.009 c 0,-1.238 1.059,-1.951 2.362,-1.951 l 13.955,-0.071 c 1.304,0 2.363,0.65 2.363,1.889 0,1.237 -1.06,1.949 -2.363,1.949 l -9.836,-0.038 c -1.305,0 -2.361,0.712 -2.361,1.95 l 0.144,5.377 c 0,1.239 1.057,1.89 2.36,1.89 l 11.344,-0.021 c 1.305,0 2.363,0.65 2.363,1.888 l -0.146,12.763 c 0,1.239 -1.059,1.89 -2.362,1.89 l -18.377,-0.005 c -1.305,0 -2.361,-0.713 -2.361,-1.949 0,-1.237 1.057,-1.889 2.361,-1.889 l 9.754,-0.028 c 1.305,0 2.361,-0.65 2.361,-1.888 l 0.146,-4.761 c 0,-1.236 -1.059,-1.948 -2.363,-1.948 l -6.838,-0.149 z"
   id="path9"
   style="fill:#525252" />
	<path
   d="m 356.813,57.73 c -1.304,0 -2.361,0.65 -2.361,1.888 l 0.012,8.937 c 0,1.305 -0.65,2.362 -1.889,2.362 l -2.541,0.048 c -1.304,0 -2.361,0.651 -2.361,1.889 l -0.145,12.186 c 0,1.236 1.058,1.948 2.363,1.948 l 19.11,0.073 c 1.304,0 2.362,-0.65 2.362,-1.89 0,-1.237 -1.058,-1.949 -2.362,-1.949 L 354.01,83.26 c -1.305,0 -2.362,-0.712 -2.362,-1.949 l 0.143,-4.554 c 0,-1.237 1.058,-1.889 2.362,-1.889 l 14.85,0.021 c 1.304,0 2.362,-0.65 2.362,-1.889 0,-1.239 -1.058,-1.95 -2.362,-1.95 l -3.296,-0.027 c -1.307,0 -2.364,-0.713 -2.364,-1.951 l 0.144,-5.583 c 0,-1.238 1.058,-1.888 2.361,-1.888 l 3.155,-0.028 c 1.304,0 2.362,-0.651 2.362,-1.889 0,-1.238 -1.058,-1.949 -2.362,-1.949 l -12.19,-0.005 z"
   id="path11"
   style="fill:#525252" />
	<path
   d="m 422.845,85.039 c 0,1.236 1.059,1.948 2.363,1.948 l 13.813,0.073 c 1.304,0 2.36,-0.65 2.36,-1.89 0,-1.237 -1.057,-1.949 -2.36,-1.949 l -9.694,0.038 c -1.305,0 -2.363,-0.712 -2.363,-1.949 l 0.143,-13.574 c 0,-1.238 1.059,-1.889 2.363,-1.889 l 9.694,0.021 c 1.305,0 2.361,-0.651 2.361,-1.889 v -4.518 c 0,-1.239 -1.057,-1.951 -2.361,-1.951 l -13.813,-0.085 c -1.305,0 -2.361,0.65 -2.361,1.889 l -0.145,25.725 z"
   id="path13"
   style="fill:#525252" />
	<path
   d="m 559.161,85.039 c 0,1.236 1.059,1.948 2.363,1.948 l 13.813,0.073 c 1.307,0 2.361,-0.65 2.361,-1.89 0,-1.237 -1.055,-1.949 -2.361,-1.949 l -9.694,0.038 c -1.305,0 -2.363,-0.712 -2.363,-1.949 l 0.144,-13.574 c 0,-1.238 1.059,-1.889 2.363,-1.889 l 9.694,0.021 c 1.304,0 2.36,-0.651 2.36,-1.889 v -4.518 c 0,-1.239 -1.057,-1.951 -2.36,-1.951 l -13.813,-0.085 c -1.305,0 -2.361,0.65 -2.361,1.889 l -0.146,25.725 z"
   id="path15"
   style="fill:#525252" />
	<g
   id="g17">
		<g
   id="g19">
			<path
   d="m 514.13,59.314 c 0,-1.239 -1.057,-1.889 -2.361,-1.889 h -16.114 c -1.304,0 -2.36,0.65 -2.36,1.889 l -0.146,25.725 c 0,1.236 1.059,1.948 2.363,1.948 h 16.4 c 1.305,0 2.363,-0.712 2.363,-1.948 L 514.13,59.314 z m -6.002,19.748 h -8.833 c -1.304,0 -2.361,-0.713 -2.361,-1.95 l 0.144,-13.574 c 0,-1.238 1.059,-1.888 2.361,-1.888 h 8.547 c 1.305,0 2.361,0.65 2.361,1.888 l 0.145,13.574 c -0.001,1.237 -1.059,1.95 -2.364,1.95 z"
   id="path21"
   style="fill:#525252" />
		</g>
	</g>
	<g
   id="g23">
		<g
   id="g25">
			<path
   d="m 539.95,59.375 c 0,-1.238 -1.059,-1.95 -2.363,-1.95 h -16.398 c -1.307,0 -2.363,0.712 -2.363,1.95 l 0.118,3.848 -0.118,21.35 c 0,1.305 0.65,2.362 1.887,2.362 1.239,0 1.951,-1.058 1.951,-2.362 l -0.002,-16.795 c 0,-1.238 1.059,-1.95 2.363,-1.95 h 8.626 c 1.305,0 2.363,0.712 2.363,1.95 l 0.099,16.743 c 0,1.305 0.65,2.362 1.887,2.362 1.238,0 1.951,-1.058 1.951,-2.362 l -0.006,-18.627 0.005,-6.519 z"
   id="path27"
   style="fill:#525252" />
		</g>
	</g>
	<path
   d="m 454.742,67.736 c 0,-1.238 1.057,-1.889 2.361,-1.889 l 2.965,0.021 c 1.307,0 2.363,-0.651 2.363,-1.889 v -4.518 c 0,-1.239 -1.057,-1.951 -2.363,-1.951 H 445.7 c -1.303,0 -2.361,0.712 -2.361,1.951 v 4.518 c 0,1.238 1.059,1.889 2.361,1.889 l 2.965,-0.021 c 1.305,0 2.363,0.651 2.363,1.889 l -0.12,16.978 c 0,1.304 0.652,2.362 1.889,2.362 1.239,0 1.951,-1.059 1.951,-2.362 l -0.006,-16.978 z"
   id="path29"
   style="fill:#525252" />
	<path
   d="m 552.02,76.78 c 0,-2.321 0.006,-16.976 0.006,-16.976 0,-1.305 -0.713,-2.363 -1.951,-2.363 -1.237,0 -1.889,1.059 -1.889,2.363 l 0.12,16.976 c 0,1.237 -0.852,1.888 -2.156,1.888 l -0.902,-0.02 c -1.305,0 -2.568,0.65 -2.568,1.889 v 4.52 c 0,1.237 1.264,1.949 2.568,1.949 h 7.769 c 1.303,0 2.361,-0.712 2.361,-1.949 0,0 0,-1.409 0,-4.52 0,-3.111 -3.358,-0.553 -3.358,-3.757 z"
   id="path31"
   style="fill:#525252" />
	<path
   d="m 288.502,57.51 c 1.305,0 2.362,0.712 2.362,1.951 v 4.518 c 0,1.238 -1.057,1.889 -2.362,1.889 l -2.965,-0.021 c -1.305,0 -2.362,0.651 -2.362,1.889 l 0.119,16.978 c 0,1.304 -0.65,2.362 -1.889,2.362 -1.237,0 -1.95,-1.059 -1.95,-2.362 l 0.005,-16.978 c 0,-1.238 -1.058,-1.889 -2.362,-1.889 h -8.143 c -1.305,0 -2.362,0.651 -2.362,1.889 l 0.005,16.978 c 0,1.304 -0.712,2.362 -1.95,2.362 -1.239,0 -1.889,-1.059 -1.889,-2.362 l 0.119,-16.978 c 0,-1.238 -1.057,-1.889 -2.362,-1.889 l -2.964,0.021 c -1.305,0 -2.363,-0.651 -2.363,-1.889 v -4.518 c 0,-1.239 1.058,-1.951 2.363,-1.951 h 30.95 z"
   id="path33"
   style="fill:#525252" />
	<path
   d="m 375.738,85.171 c 0,1.239 1.057,1.89 2.362,1.89 l 11.665,-0.086 c 1.306,0 2.363,-0.712 2.363,-1.949 V 80.3 c 0,-1.237 -1.058,-1.889 -2.363,-1.889 l -7.546,0.021 c -1.306,0 -2.362,-0.651 -2.362,-1.89 l -0.021,-16.79 c 0,-1.306 -0.65,-2.363 -1.889,-2.363 -1.237,0 -1.95,1.058 -1.95,2.363 l -0.259,25.419 z"
   id="path35"
   style="fill:#525252" />
	<path
   d="m 299.683,57.73 c -1.306,0 -2.363,0.65 -2.363,1.888 l 0.014,8.937 c 0,1.305 -0.65,2.362 -1.888,2.362 l -2.542,0.048 c -1.304,0 -2.362,0.651 -2.362,1.889 l -0.144,12.186 c 0,1.236 1.058,1.948 2.363,1.948 l 19.11,0.073 c 1.305,0 2.362,-0.65 2.362,-1.89 0,-1.237 -1.058,-1.949 -2.362,-1.949 l -14.992,0.038 c -1.305,0 -2.362,-0.712 -2.362,-1.949 l 0.143,-4.554 c 0,-1.237 1.058,-1.889 2.362,-1.889 l 14.849,0.021 c 1.305,0 2.362,-0.65 2.362,-1.889 0,-1.239 -1.058,-1.95 -2.362,-1.95 l -3.297,-0.027 c -1.304,0 -2.362,-0.713 -2.362,-1.951 l 0.143,-5.583 c 0,-1.238 1.058,-1.888 2.362,-1.888 l 3.153,-0.028 c 1.305,0 2.362,-0.651 2.362,-1.889 0,-1.238 -1.058,-1.949 -2.362,-1.949 L 299.683,57.73 z"
   id="path37"
   style="fill:#525252" />
	<path
   d="m 318.606,85.171 c 0,1.239 1.058,1.89 2.362,1.89 l 11.665,-0.086 c 1.305,0 2.362,-0.712 2.362,-1.949 V 80.3 c 0,-1.237 -1.058,-1.889 -2.362,-1.889 l -7.546,0.021 c -1.306,0 -2.363,-0.651 -2.363,-1.89 l -0.021,-16.79 c 0,-1.306 -0.65,-2.363 -1.889,-2.363 -1.238,0 -1.95,1.058 -1.95,2.363 l -0.258,25.419 z"
   id="path39"
   style="fill:#525252" />
	<g
   id="g41">
		<g
   id="g43">
			<path
   d="m 488.784,73.947 c 0,-2.967 -4.113,-2.763 -4.113,-4.4 0,-1.637 -0.021,-10.232 -0.021,-10.232 0,-1.239 -1.058,-1.889 -2.361,-1.889 h -14.876 c -1.307,0 -2.363,0.65 -2.363,1.889 -0.002,0.645 -0.006,1.29 -0.01,1.936 -0.046,7.311 -0.191,14.632 -0.085,21.941 0.014,0.897 -0.323,1.947 0.151,2.746 0.619,1.045 1.719,1.315 2.814,1.285 2.301,-0.062 4.465,0.556 5.529,-1.979 l 0.317,-8.381 c 0,-1.237 1.057,-1.95 2.36,-1.95 h 6.356 c 1.307,0 2.363,0.713 2.363,1.95 l 0.099,7.878 c 0,1.305 0.65,2.362 1.889,2.362 1.236,0 1.949,-1.058 1.949,-2.362 l -0.004,-6.874 c 0.002,0 0.006,-0.952 0.006,-3.92 z m -10.554,-2.93 h -6.769 c -1.305,0 -2.361,-0.712 -2.361,-1.949 l 0.144,-5.53 c 0,-1.238 1.057,-1.888 2.361,-1.888 h 6.483 c 1.305,0 2.361,0.65 2.361,1.888 l 0.144,5.53 c 10e-4,1.237 -1.057,1.949 -2.363,1.949 z"
   id="path45"
   style="fill:#525252" />
		</g>
	</g>
	<g
   id="g47">
		<g
   id="g49">
			<path
   d="m 249.466,57.425 h -12.607 c -1.305,0 -1.989,0.639 -2.361,1.889 0,0 -8.292,20.955 -8.499,21.432 -0.208,0.477 -1.662,0.737 -1.662,-0.225 0,-0.964 -0.052,-20.508 -0.052,-20.508 0,-1.306 -0.557,-2.494 -1.794,-2.494 l -4.442,-0.013 c -1.237,0 -1.684,0.835 -2.567,2.362 0,0 -5.273,12.981 -5.587,13.578 -0.313,0.599 -1.278,0.888 -1.438,0.053 -0.161,-0.834 -2.565,-14.125 -2.565,-14.125 0,-1.238 -1.057,-1.95 -2.363,-1.95 h -8.355 c -1.305,0 -2.363,0.712 -2.363,1.95 l 0.12,3.848 -0.12,21.35 c 0,1.305 0.651,2.362 1.89,2.362 1.237,0 1.949,-1.058 1.949,-2.362 l -0.001,-16.795 c 0,-1.238 1.058,-1.95 2.363,-1.95 h 1.612 c 1.306,0 2.363,0.712 2.363,1.95 l 1.596,8.919 c 0,1.306 0.651,2.362 1.889,2.362 l 4.156,0.02 c 1.237,0 1.861,-0.9 2.553,-2.238 0,0 4.789,-11.485 4.988,-11.92 0.43,-0.938 1.626,-0.766 1.626,0.145 0,0.574 0.011,17.078 0.011,17.078 l 0.049,2.541 c 0,1.306 0.65,2.361 1.888,2.361 l 4.794,0.058 c 1.238,0 1.483,-0.922 2.302,-2.362 l 3.605,-7.878 c 0.585,-1.138 1.376,-1.929 2.363,-1.95 h 5.944 c 1.305,0 2.363,0.713 2.363,1.95 l 0.315,8.381 c -0.048,2.262 3.228,1.917 5.529,1.979 1.096,0.03 2.818,-0.688 2.817,-1.904 l 0.054,-26.004 c -0.001,-1.24 -1.058,-1.89 -2.363,-1.89 z m -4.05,13.592 h -7.801 c -2.677,-0.037 -2.318,-1.937 -2.156,-2.568 l 2.206,-4.911 c 0.635,-1.08 1.059,-1.888 2.363,-1.888 h 5.245 c 1.304,0 2.362,0.65 2.362,1.888 l 0.144,5.53 c -0.001,1.237 -1.058,1.949 -2.363,1.949 z"
   id="path51"
   style="fill:#525252" />
		</g>
	</g>
</g>
</svg>