<?xml version="1.0" encoding="utf-8"?>
<!-- Generator: Adobe Illustrator 13.0.0, SVG Export Plug-In . SVG Version: 6.00 Build 14948)  -->
<!DOCTYPE svg PUBLIC "-//W3C//DTD SVG 1.0//EN" "http://www.w3.org/TR/2001/REC-SVG-20010904/DTD/svg10.dtd">
<svg version="1.0"
	 id="svg4871" xmlns:cc="http://web.resource.org/cc/" xmlns:rdf="http://www.w3.org/1999/02/22-rdf-syntax-ns#" xmlns:inkscape="http://www.inkscape.org/namespaces/inkscape" xmlns:dc="http://purl.org/dc/elements/1.1/" xmlns:svg="http://www.w3.org/2000/svg" xmlns:sodipodi="http://sodipodi.sourceforge.net/DTD/sodipodi-0.dtd" sodipodi:docname="Nintendo.svg" inkscape:version="0.45" inkscape:output_extension="org.inkscape.output.svg.inkscape" sodipodi:version="0.32" sodipodi:modified="true" sodipodi:docbase="/home/rugby471/Desktop"
	 xmlns="http://www.w3.org/2000/svg" xmlns:xlink="http://www.w3.org/1999/xlink" x="0px" y="0px" width="504.248px"
	 height="124.221px" viewBox="0 0 504.248 124.221" enable-background="new 0 0 504.248 124.221" xml:space="preserve">
<g>
	<path id="path3361" fill="#525252" d="M40.345,32.491h18.208L83.765,73.27L83.75,32.491h18.077v58.476H83.78L58.437,50.189v40.779
		H40.33L40.345,32.491"/>
	<path id="path3363" fill="#525252" d="M200.122,38.502h17.595v7.864h9.513v5.792h-9.513l0.015,38.809h-17.625l0.016-38.809h-9.557
		v-5.777h9.571L200.122,38.502"/>
	<path id="path3365" fill="#525252" d="M111.895,52.085h17.581v38.882h-17.581V52.085"/>
	<path id="path3367" fill="#525252" d="M111.851,32.477h17.625v11.949h-17.625V32.477z"/>
	<path id="path3369" fill="#525252" d="M427.128,71.213c0,0-0.014,5.88-0.014,8.229c0,6.201-3.662,8.754-7.193,8.754
		c-3.516,0-7.193-2.553-7.193-8.754c0-2.349,0-8.374,0-8.374s0.016-5.764,0.016-8.112c0-6.171,3.676-8.71,7.178-8.71
		c3.516,0,7.193,2.539,7.193,8.71c0,2.349,0,6.711,0.014,8.272V71.213z M420.067,49.43c-14.197,0-25.709,9.775-25.709,21.827
		c0,12.065,11.512,21.841,25.709,21.841c14.195,0,25.691-9.775,25.691-21.841C445.759,59.205,434.263,49.43,420.067,49.43"/>
	<path id="path3371" fill="#525252" d="M371.276,32.491h17.363v58.476h-17.393c0,0-0.014-1.896-0.014-2.247
		c-6.727,4.217-14.313,4.202-20.236,1.459c-1.576-0.744-12.021-5.748-12.021-19.288c0-10.256,9.688-21.476,22.352-20.352
		c4.172,0.364,7.148,1.882,9.949,3.472C371.276,45.009,371.276,32.491,371.276,32.491z M371.409,71.329c0,0,0-4.888,0-6.944
		c0-6.025-4.158-7.557-6.887-7.557c-2.803,0-6.902,1.532-6.902,7.557c0,1.984,0.016,6.916,0.016,6.916s-0.016,4.858-0.016,6.93
		c0,5.997,4.1,7.572,6.887,7.572c2.744,0,6.902-1.575,6.902-7.572C371.409,75.72,371.409,71.329,371.409,71.329"/>
	<path id="path3373" fill="#525252" d="M170.649,50.277c6.565-0.176,19.916,4.129,19.828,19.521
		c-0.029,2.742-0.015,21.155-0.015,21.155h-17.479c0,0,0-23.096,0-25.532c0-3.384-3.239-7.164-8.024-7.164
		c-4.8,0-8.346,3.779-8.346,7.164c0,1.648,0.015,25.532,0.015,25.532h-17.464l-0.015-38.882l17.479-0.015c0,0-0.029,3.138,0,4.101
		C159.983,52.947,164.842,50.451,170.649,50.277"/>
	<path id="path3375" fill="#525252" d="M313.56,50.277c6.58-0.176,19.914,4.129,19.813,19.521c-0.014,2.742,0,21.155,0,21.155
		h-17.465c0,0,0-23.096,0-25.532c0-3.384-3.254-7.164-8.039-7.164s-8.346,3.779-8.346,7.164c0,1.648,0.016,25.532,0.016,25.532
		h-17.465l0.016-38.882l17.449-0.015c0,0-0.016,3.138,0,4.101C302.907,52.947,307.753,50.451,313.56,50.277"/>
	<path id="path3377" fill="#525252" d="M243.614,65.639c-0.029-3.414,0.044-5.69,1.168-7.63c1.371-2.393,3.895-3.545,6.186-3.545
		h-0.015c2.306,0,4.83,1.152,6.201,3.545c1.109,1.94,1.168,4.217,1.139,7.63H243.614z M258.233,77.37c0,0,0.016,0.16,0.016,2.349
		c0,7.12-4.684,8.695-7.282,8.695c-2.597,0-7.354-1.575-7.354-8.695c0-2.13,0.015-8.024,0.015-8.024s33.121,0.015,33.121,0
		c0-12.066-11.645-22.06-25.942-22.06c-14.299,0-25.897,9.775-25.897,21.841c0,12.052,11.599,21.826,25.897,21.826
		c11.862,0,21.885-6.77,24.95-15.946L258.233,77.37"/>
	<path id="path3379" fill="#525252" d="M448.503,36.839c2.844,0,4.26,0.963,4.26,2.874c0,1.313-0.816,2.305-2.188,2.641l2.23,4.465
		h-2.697l-1.898-4.085h-1.195v4.085h-2.422v-9.979H448.503z M448.284,32.944c-4.977,0-9.002,4.041-9.002,9.002
		c0,4.975,4.025,9.002,9.002,9.002c4.975,0,9.002-4.027,9.002-9.002C457.286,36.985,453.259,32.944,448.284,32.944z M455.563,41.946
		c0,4.026-3.268,7.28-7.279,7.28c-4.027,0-7.281-3.254-7.281-7.28c0-4.013,3.254-7.28,7.281-7.28
		C452.296,34.665,455.563,37.933,455.563,41.946z M447.015,41.275h1.195c1.387,0,2.043-0.424,2.043-1.416
		c0-1.035-0.715-1.488-2.174-1.488h-1.064V41.275"/>
</g>
<path id="path3381" fill="#525252" d="M62.631,125C23.106,124.985-3.316,96.972-3.316,63.007c0-33.981,26.481-62.315,65.889-62.227
	h372.456c39.422-0.088,65.904,28.246,65.904,62.227c0,33.966-26.424,61.979-65.947,61.993H62.631z M62.762,16.055
	c-31.311,0.059-50.52,20.98-50.52,46.864c0,25.868,19.092,46.966,50.52,46.849h372.09c31.428,0.117,50.512-20.98,50.512-46.849
	c0-25.883-19.201-46.805-50.512-46.864H62.762"/>
</svg>
