<?xml version="1.0" encoding="utf-8"?>
<!-- Generator: Adobe Illustrator 13.0.0, SVG Export Plug-In . SVG Version: 6.00 Build 14948)  -->
<!DOCTYPE svg PUBLIC "-//W3C//DTD SVG 1.0//EN" "http://www.w3.org/TR/2001/REC-SVG-20010904/DTD/svg10.dtd">
<svg version="1.0" id="svg2" xmlns:svg="http://www.w3.org/2000/svg"
	 xmlns="http://www.w3.org/2000/svg" xmlns:xlink="http://www.w3.org/1999/xlink" x="0px" y="0px" width="792.9px"
	 height="133.48px" viewBox="0 0 792.9 133.48" enable-background="new 0 0 792.9 133.48" xml:space="preserve">
<g>
	<path fill="#525252" d="M197.916,90.046v-0.98v-0.956v-0.955v-0.98v-0.956v-0.955v-0.955v-0.956h3.772h3.772h3.747h3.772h3.772
		h3.747h3.772h3.772h3.772h3.747h3.772h3.772h3.747h3.772h3.772h3.747v-1.082v-1.106v-1.106V77.95v-1.081v-1.106V74.68v-1.106
		h-3.747h-3.772h-3.772h-3.747h-3.772h-3.772h-3.747h-3.772h-3.772h-3.772h-3.747h-3.772h-3.772h-3.747h-3.772h-3.772v-1.509v-1.483
		v-1.51v-1.509v-1.508v-1.509v-1.51v-1.509v-1.509V58.51v-1.483v-1.509v-1.51V52.5v-1.483v-1.509h4.275h4.275h4.3h4.275h4.275h4.275
		h4.275h4.275h4.275h4.275h4.275h4.275h4.275h4.275h4.275h4.275v0.955v0.956v0.955v0.956v0.956v0.98v0.955v0.956h-3.747h-3.772
		h-3.772h-3.747h-3.772h-3.772h-3.747h-3.772h-3.772h-3.772h-3.748h-3.772h-3.772h-3.747h-3.772h-3.772v1.081v1.107v1.081v1.081
		v1.082v1.106v1.081v1.106h3.772h3.772h3.747h3.772h3.772h3.748h3.772h3.772h3.772h3.747h3.772h3.772h3.747h3.772h3.772h3.747v1.509
		v1.509v1.51v1.508v1.509v1.509v1.51v1.509v1.509v1.509v1.509v1.509v1.51v1.509v1.508v1.509h-4.275h-4.275h-4.275h-4.275h-4.275
		h-4.275h-4.275h-4.275h-4.275h-4.275h-4.275h-4.275h-4.275h-4.3h-4.275H197.916z"/>
	<path fill="#525252" d="M271.298,90.046v-2.514v-2.49v-2.489v-2.489v-2.516v-2.489v-2.49v-2.515v-2.49v-2.515v-2.489v-2.515v-2.489
		V55.04v-2.489v-2.515h1.031h1.006h1.031h1.031h1.031h1.006h1.031h1.031v2.489v2.489v2.515v2.49v2.489v2.516v2.489v2.515v2.49v2.489
		v2.515v2.49v2.515v2.515v2.49v2.514h-1.031h-1.031h-1.006h-1.031h-1.031h-1.031h-1.006H271.298z"/>
	<path fill="#525252" d="M283.897,90.046v-2.514v-2.49v-2.515v-2.515v-2.49v-2.515v-2.489v-2.49v-2.515v-2.489v-2.516v-2.489v-2.49
		v-2.515v-2.489v-2.489h4.275h4.275h4.301h4.275h4.275h4.274h4.275h4.275h4.275h4.275h4.275h4.275h4.274h4.275h4.275h4.275v2.489
		v2.489v2.515v2.49v2.489v2.516v2.489v2.515v2.49v2.489v2.515v2.49v2.515v2.515v2.49v2.514h-1.007h-1.03h-1.031h-1.031h-1.006
		h-1.031h-1.031h-1.03V88.01v-2.012v-2.012v-2.037v-2.012v-2.013v-2.036v-2.013v-2.012v-2.037v-2.012v-2.012v-2.037v-2.012v-2.012
		v-2.037h-3.244h-3.244h-3.27h-3.244h-3.244h-3.27h-3.244h-3.244h-3.244h-3.269h-3.245h-3.243h-3.27h-3.244h-3.245h-3.269v2.037
		v2.012v2.012v2.037v2.012v2.012v2.037v2.012v2.013v2.036v2.013v2.012v2.037v2.012v2.012v2.036h-1.006h-1.031h-1.031h-1.031h-1.006
		h-1.031h-1.031H283.897z"/>
	<path fill="#525252" d="M356.702,90.046v-2.514v-2.49v-2.515v-2.515v-2.49v-2.515v-2.489v-2.49v-2.515v-2.489v-2.516v-2.489v-2.49
		v-2.515v-2.489v-2.489h4.275h4.274h4.275h4.275h4.275h4.275h4.274h4.301h4.275h4.275h4.274h4.275h4.3h4.276h4.274h4.301v0.955
		v0.956v0.955v0.956v0.955v0.957v0.979v0.956h-3.772h-3.747h-3.772h-3.772h-3.771h-3.747h-3.772h-3.771h-3.748h-3.771h-3.772h-3.747
		h-3.772h-3.772h-3.747h-3.772v1.534v1.533v1.561v1.533v1.534v1.533v1.535v1.559v1.534v1.534v1.534v1.559v1.534v1.56v1.534v1.534
		h3.772h3.747h3.772h3.772h3.747h3.772h3.771h3.748h3.771h3.772h3.747h3.771h3.772h3.772h3.747h3.772v0.956v0.955v0.955v0.956v0.98
		v0.955v0.956v0.98h-4.301h-4.274h-4.276h-4.3h-4.275h-4.274h-4.275h-4.275h-4.301h-4.274h-4.275h-4.275h-4.275h-4.275h-4.274
		H356.702z"/>
	<path fill="#525252" d="M430.638,90.046v-3.269v-3.244v-3.244v-3.27v-3.244v-3.243v-3.27v-3.244v-3.245v-3.269V54.26v-3.244v-3.27
		v-3.244v-3.244V37.99h1.031h1.03h1.031h1.006h1.031h1.031h1.031h1.006v3.269v3.244v3.244v3.27v3.244v3.244v3.269v3.245v3.244v3.27
		v3.243v3.244v3.27v3.244v3.244v3.269h-1.006h-1.031h-1.031h-1.031h-1.006h-1.031h-1.03H430.638z"/>
	<path fill="#525252" d="M516.569,90.046v-2.514v-2.49v-2.489v-2.489v-2.516v-2.489v-2.49v-2.515v-2.49v-2.515v-2.489v-2.515v-2.489
		V55.04v-2.489v-2.515h1.031h1.031h1.03h1.006h1.032h1.056h1.031h1.031v2.489v2.489v2.515v2.49v2.489v2.516v2.489v2.515v2.49v2.489
		v2.515v2.49v2.515v2.515v2.49v2.514h-1.007h-1.031h-1.03h-1.031h-1.03h-1.032h-1.031H516.569z"/>
	<path fill="#525252" d="M529.772,90.046v-2.514v-2.49v-2.515v-2.515v-2.49v-2.515v-2.489v-2.49v-2.515v-2.489v-2.516v-2.489v-2.49
		v-2.515v-2.489v-2.489h4.274h4.275h4.275h4.275h4.274h4.276h4.274h4.275h4.275h4.274h4.276h4.3h4.275h4.274h4.275h4.275v0.955
		v0.956v0.955v0.956v0.955v0.957v0.979v0.956h-3.772h-3.772h-3.746h-3.772h-3.772h-3.747h-3.772h-3.771h-3.748h-3.771h-3.772h-3.747
		h-3.772h-3.771h-3.772h-3.747v2.037v2.012v2.012v2.037v2.012v2.012v2.037v2.012v2.013v2.036v2.013v2.012v2.037v2.012v2.012v2.037
		h-1.031h-1.032h-1.005h-1.031h-1.031h-1.031h-1.006L529.772,90.046L529.772,90.046z"/>
	<g>
		<g>
			<path fill="#525252" d="M507.391,50.036h-4.275h-4.275h-4.301h-4.274h-4.275h-4.275h-4.275h-4.3h-4.276h-4.274h-4.274h-4.276
				h-4.274h-4.275h-4.275v0.955v0.956v0.955v0.956v0.955v0.957v0.979v0.956h3.747h3.772h3.772h3.746h3.772h3.772h3.772h3.747h3.772
				h3.772h3.747h3.772h3.771h3.747h3.772h3.772v1.081v1.106v1.082v1.106v1.106v1.081v1.106v1.107h-3.772h-3.772h-3.747h-3.771
				h-3.772h-3.747h-3.772h-3.772h-3.747h-3.772h-3.772h-3.772h-3.746h-3.772h-3.772h-3.747v1.483v1.458v1.459v1.484v1.458v1.483
				v1.459v1.484v1.458v1.483v1.458v1.484v1.483v1.459v1.484v1.482h4.275h4.275h4.274h4.276h4.274h4.274h4.276h4.3h4.275h4.275h4.275
				h4.274h4.301h4.275h4.275h4.3v-2.514v-2.49v-2.515v-2.515v-2.49v-2.515v-2.489v-2.49v-2.515v-2.489v-2.516v-2.489v-2.49v-2.515
				v-2.489v-2.489H507.391z M503.442,74.68v1.082v1.106v1.081v1.106v1.106v1.106v1.082h-3.245h-3.244h-3.244h-3.243h-3.244h-3.27
				h-3.244h-3.244h-3.244h-3.244h-3.27h-3.244h-3.244h-3.269h-3.244h-3.245v-1.082v-1.081v-1.106V78v-1.106v-1.106V74.68v-1.106
				h3.245h3.244h3.243h3.244h3.244h3.245h3.243h3.27h3.244h3.244h3.244h3.269h3.245h3.244h3.243h3.271V74.68z"/>
		</g>
	</g>
	<path fill="#525252" d="M271.298,45.685v-0.956v-0.956v-0.955v-0.956v-0.98v-0.956V38.97V37.99h1.031h1.006h1.031h1.031h1.031
		h1.006h1.031h1.031v0.956v0.956v0.956v0.956v0.956v0.981v0.955v0.981h-1.031h-1.031h-1.006h-1.031h-1.031h-1.031h-1.006H271.298z"
		/>
	<path fill="#525252" d="M516.569,45.685v-0.956v-0.956v-0.955v-0.956v-0.98v-0.956V38.97V37.99h1.031h1.031h1.03h1.006h1.032h1.056
		h1.031h1.031v0.956v0.956v0.956v0.956v0.956v0.981v0.955v0.981h-1.007h-1.031h-1.03h-1.031h-1.03h-1.032h-1.031H516.569z"/>
</g>
</svg>
