<?xml version="1.0" encoding="utf-8"?>
<!-- Generator: Adobe Illustrator 13.0.0, SVG Export Plug-In . SVG Version: 6.00 Build 14948)  -->
<!DOCTYPE svg PUBLIC "-//W3C//DTD SVG 1.0//EN" "http://www.w3.org/TR/2001/REC-SVG-20010904/DTD/svg10.dtd">
<svg version="1.0" id="svg2" xmlns:svg="http://www.w3.org/2000/svg"
	 xmlns="http://www.w3.org/2000/svg" xmlns:xlink="http://www.w3.org/1999/xlink" x="0px" y="0px" width="792.9px"
	 height="133.48px" viewBox="0 0 792.9 133.48" enable-background="new 0 0 792.9 133.48" xml:space="preserve">
<g>
	<path fill="#525252" d="M335.45,110.188v-8.24l0.977-0.166c3.061-0.521,7.618-1.885,10.709-3.205
		c9.839-4.203,18.574-11.976,25.86-23.007c1.979-2.995,3.96-7.525,5.396-12.338c3.561-11.938,5.568-29.264,5.574-48.104l0.001-5.322
		h4.151h4.151l-0.096,12.637c-0.211,27.703-0.966,39.321-3.208,49.332c-1.889,8.437-5.634,16.517-10.445,22.539
		c-1.598,1.999-6.258,6.682-8.457,8.498c-8.578,7.08-18.066,12.04-27.621,14.438c-2.119,0.531-5.75,1.178-6.621,1.178h-0.373
		V110.188z"/>
	<polygon fill="#525252" points="395.555,64.118 395.555,9.806 403.447,9.806 411.341,9.806 411.341,64.118 411.341,118.428 
		403.447,118.428 395.555,118.428 	"/>
	<path fill="#525252" d="M468.982,118.191c-15.139-2.305-32.505-12.891-41.934-25.561c-4.002-5.376-7.466-13.295-9.18-20.982
		c-2.272-10.19-3.189-25.432-3.195-53.116l-0.002-8.726h4.127h4.129v5.903c0,26.916,4.018,49.105,10.801,59.662
		c3.928,6.11,9.295,12.136,14.58,16.368c6.307,5.05,14.353,8.695,22.159,10.039l0.978,0.169v8.24v8.24l-0.543-0.015
		C470.604,118.407,469.739,118.306,468.982,118.191L468.982,118.191z"/>
</g>
<g>
	<g>
		<path fill="#525252" d="M289.362,100.467c-24.06-70.328-28.438-82.918-29.364-84.436c-2.375-3.892-5.62-6.015-10.302-6.741
			c-3.069-0.477-7.828-0.243-10.45,0.513c-2.65,0.764-5.788,3.236-7.477,5.891c-1.094,1.721-5.054,12.889-18.345,51.741
			c-9.322,27.251-17.068,49.951-17.212,50.444l-0.263,0.896l10.168-0.087l10.168-0.086l2.462-7.286
			c1.354-4.008,3.468-10.239,4.697-13.848l2.235-6.561l40.181,0.168l4.644,13.717c2.554,7.544,4.716,13.776,4.805,13.85
			s4.683,0.094,10.208,0.046l10.047-0.086L289.362,100.467z M245.683,75.369c-13.766,0-14.635-0.034-14.441-0.567
			c0.114-0.312,3.337-9.603,7.163-20.645c3.827-11.043,7.024-20.139,7.106-20.213c0.082-0.074,0.245-0.056,0.362,0.04
			c0.218,0.18,13.823,38.893,14.23,40.494l0.227,0.891H245.683z"/>
	</g>
</g>
<polygon fill="#525252" points="309.458,71.968 309.458,25.174 295.674,25.174 281.891,25.174 281.891,17.077 281.891,8.981 
	319.5,8.981 357.109,8.981 357.109,17.073 357.109,25.165 343.228,25.25 329.346,25.336 329.246,72.049 329.146,118.763 
	319.302,118.763 309.458,118.763 "/>
<path fill="#525252" d="M477.754,70.106c0.007-52.591-0.052-51.062,2.094-54.542c1.193-1.938,4.027-4.146,6.449-5.027
	c3.508-1.276,7.032-1.533,21.23-1.544c10.195-0.009,14.248,0.104,16.806,0.472c11.701,1.678,21.271,7.659,26.249,16.406
	c5.508,9.68,5.072,24.156-1.004,33.274c-3.01,4.519-6.697,7.519-13.051,10.62c-5.154,2.515-6.336,3.233-7.219,4.39
	c-0.971,1.272-0.809,3.116,0.454,5.151c0.459,0.74,7.74,9.861,16.181,20.271c8.441,10.409,15.29,18.959,15.221,19
	c-0.068,0.042-5.265,0.01-11.546-0.069l-11.421-0.145l-15.415-19.149c-8.479-10.532-15.802-19.785-16.274-20.562
	c-2.937-4.821-2.174-11.247,1.713-14.429c1.168-0.955,2.984-1.82,6.488-3.087c8.434-3.051,12.988-5.726,16.27-9.556
	c2.658-3.104,3.654-5.863,3.627-10.054c-0.057-8.807-4.779-14.369-13.487-15.887c-1.768-0.309-5.319-0.457-10.993-0.461
	c-9.393-0.007-10.547,0.188-11.891,1.998c-0.786,1.063-0.794,1.508-0.795,46.329l-0.002,45.257h-9.846h-9.846L477.754,70.106z"/>
<polygon fill="#525252" points="573.05,63.872 573.05,8.981 582.896,8.981 592.74,8.981 592.74,63.872 592.74,118.763 
	582.896,118.763 573.05,118.763 "/>
</svg>
