<?xml version="1.0" encoding="utf-8"?>
<!-- Generator: Adobe Illustrator 13.0.0, SVG Export Plug-In . SVG Version: 6.00 Build 14948)  -->
<!DOCTYPE svg PUBLIC "-//W3C//DTD SVG 1.0//EN" "http://www.w3.org/TR/2001/REC-SVG-20010904/DTD/svg10.dtd">
<svg version="1.0" id="svg2" xmlns:svg="http://www.w3.org/2000/svg"
	 xmlns="http://www.w3.org/2000/svg" xmlns:xlink="http://www.w3.org/1999/xlink" x="0px" y="0px" width="792.9px"
	 height="133.48px" viewBox="0 0 792.9 133.48" enable-background="new 0 0 792.9 133.48" xml:space="preserve">
<path fill="#525252" d="M229.878,89.777c0,4.306-3.491,7.797-7.797,7.797c-4.306,0-7.797-3.491-7.797-7.797v-40.02
	c0-4.306,3.491-7.797,7.797-7.797c4.307,0,7.797,3.491,7.797,7.797V89.777z"/>
<path fill="#525252" d="M305.501,77.188v12.589c0,4.306-3.491,7.797-7.797,7.797c-4.307,0-7.797-3.491-7.797-7.797V49.945
	c0-4.306,3.491-7.797,7.797-7.797h38.986c4.306,0,7.797,3.491,7.797,7.797c0,4.307-3.491,7.797-7.797,7.797h-31.189v3.852h31.189
	c4.306,0,7.797,3.491,7.797,7.796c0,4.307-3.491,7.798-7.797,7.798H305.501z"/>
<path fill="#525252" d="M268.019,58.212c1.842,0,3.288,1.493,3.288,3.335v28.23c0,4.306,3.491,7.797,7.797,7.797
	c4.306,0,7.797-3.491,7.797-7.797V49.946c0-4.307-3.491-7.797-7.797-7.797l-42.884,0c-1.842,0-3.335,1.493-3.335,3.335v44.294
	c0,4.306,3.491,7.797,7.797,7.797s7.797-3.491,7.797-7.797v-28.23c0-1.842,1.329-3.335,3.17-3.335H268.019z"/>
<g>
	<g>
		<path fill="#525252" d="M383.918,42.148h-20.291c-9.339,0-16.91,7.571-16.91,16.91v20.291c0,9.34,7.571,16.91,16.91,16.91h20.291
			c9.339,0,16.91-7.57,16.91-16.91V59.058C400.828,49.719,393.258,42.148,383.918,42.148z M385.469,77.329
			c0,2.335-1.892,4.228-4.227,4.228h-15.359c-2.335,0-4.227-1.893-4.227-4.228V61.97c0-2.335,1.892-4.228,4.227-4.228h15.359
			c2.335,0,4.227,1.893,4.227,4.228V77.329z"/>
	</g>
</g>
<g>
	<g>
		<path fill="#525252" d="M495.521,42.148H475.23c-9.339,0-16.91,7.571-16.91,16.91v20.291c0,9.34,7.571,16.91,16.91,16.91h20.291
			c9.34,0,16.909-7.57,16.909-16.91V59.058C512.431,49.719,504.861,42.148,495.521,42.148z M497.071,77.329
			c0,2.335-1.893,4.228-4.227,4.228h-15.36c-2.335,0-4.227-1.893-4.227-4.228V61.97c0-2.335,1.892-4.228,4.227-4.228h15.36
			c2.334,0,4.227,1.893,4.227,4.228V77.329z"/>
	</g>
</g>
<path fill="#525252" d="M419.922,96.377c-9.339,0-16.909-7.595-16.909-16.934V59.152c0-9.339,7.57-16.91,16.909-16.91h30.085
	c4.306,0,7.798,3.491,7.798,7.797c0,4.307-3.492,7.797-7.798,7.797h-27.196c-2.334,0-4.227,1.893-4.227,4.228v14.514
	c0,2.335,1.893,4.228,4.227,4.228l27.196-0.023c4.306,0,7.798,3.49,7.798,7.797c0,4.306-3.492,7.798-7.798,7.798H419.922z"/>
<path fill="#525252" d="M581.397,86.233c0.13,0.565,0.197,1.154,0.197,1.759c0,4.307-3.49,7.797-7.796,7.797
	c-3.55,0-6.544-2.371-7.488-5.616l-11.292-32.598c-0.09-0.286-0.245-0.543-0.447-0.754c-0.347-0.358-0.832-0.581-1.369-0.581
	c-1.051,0-2.091,0.851-2.091,1.902v31.635c0,4.306-3.491,7.797-7.797,7.797s-7.797-3.491-7.797-7.797V58.353
	c0-1.167-1.041-2.113-2.208-2.113c-1.168,0-2.16,0.946-2.16,2.113v31.424c0,4.306-3.491,7.797-7.798,7.797
	c-4.306,0-7.797-3.491-7.797-7.797V43.956c0-0.999,0.81-1.809,1.809-1.809h43.565c3.292,0,6.107,2.041,7.251,4.926L581.397,86.233z"
	/>
<text transform="matrix(1 0 0 1 568.9297 45.2952)" fill="#525252" font-family="'Arial-BoldMT'" font-size="5.8439">TM</text>
</svg>
