<?xml version="1.0" encoding="utf-8"?>
<!-- Generator: Adobe Illustrator 13.0.0, SVG Export Plug-In . SVG Version: 6.00 Build 14948)  -->
<!DOCTYPE svg PUBLIC "-//W3C//DTD SVG 1.0//EN" "http://www.w3.org/TR/2001/REC-SVG-20010904/DTD/svg10.dtd">
<svg version="1.0" id="svg2" xmlns:svg="http://www.w3.org/2000/svg"
	 xmlns="http://www.w3.org/2000/svg" xmlns:xlink="http://www.w3.org/1999/xlink" x="0px" y="0px" width="792.9px"
	 height="133.48px" viewBox="0 0 792.9 133.48" enable-background="new 0 0 792.9 133.48" xml:space="preserve">
<g>
	<path id="path4019" fill="#525252" d="M505.095,30.078v61.512h14.871V30.078H505.095z M335.555,44.777
		c-6.96,0-12.635,2.289-17.373,6.997c-4.769,4.737-7.035,10.004-7.035,16.123c0,6.038,2.376,11.374,7.421,16.345
		c5.032,4.959,10.649,7.35,17.158,7.35h9.538V80.478h-4.033c-3.671,0-6.946-1.196-9.509-3.527c-2.561-2.331-3.946-5.441-3.946-8.893
		c0-3.487,1.359-6.594,3.889-8.834c2.518-2.227,5.745-3.336,9.395-3.336h10.138c0.463-0.002,0.908,0.187,1.235,0.524
		c0.328,0.337,0.511,0.793,0.51,1.269v33.909h14.871V44.777H335.555z M377.007,44.777v61.512h14.885V57.681
		c-0.001-0.476,0.183-0.932,0.51-1.269s0.772-0.526,1.235-0.524h9.437c3.928,0,7.439,1.362,10.195,3.998
		c2.549,2.443,3.961,5.499,3.961,8.82c0,3.435-1.526,6.497-4.275,8.627c-2.717,2.104-6.084,3.146-9.881,3.146h-3.503v11.112h9.966
		c6.856,0,12.521-2.213,17.287-6.718c4.764-4.501,7.035-9.773,7.035-16.241c0-6.7-2.277-12.201-7.021-16.888
		c-4.749-4.694-10.29-6.967-16.944-6.967H377.007z M441.051,44.777v61.512h14.871V57.681c-0.002-0.476,0.182-0.932,0.509-1.269
		c0.328-0.337,0.772-0.526,1.235-0.524h9.451c3.928,0,7.44,1.362,10.195,3.998c2.549,2.443,3.961,5.499,3.961,8.82
		c0,3.44-1.545,6.5-4.29,8.627c-2.713,2.103-6.069,3.146-9.866,3.146h-3.503v11.112h9.966c6.856,0,12.505-2.212,17.273-6.718
		c4.764-4.501,7.034-9.773,7.034-16.241c0-6.7-2.276-12.201-7.021-16.888c-4.749-4.695-10.275-6.967-16.93-6.967H441.051z
		 M556.042,44.777c-7.81,0-14.467,2.37-20.232,7.188c-5.78,4.827-8.451,10.039-8.451,16.006c0,7.185,2.744,12.77,8.565,17.285
		c5.45,4.219,12.06,6.335,20.032,6.335h29.284V80.478h-27.797c-3.626,0-6.886-1.221-9.467-3.571
		c-2.595-2.363-4.004-5.544-4.004-9.099c0-3.389,1.357-6.412,3.847-8.612c2.51-2.219,5.815-3.308,9.624-3.308h9.437
		c0.671-0.002,1.283,0.393,1.573,1.015c0.29,0.622,0.206,1.359-0.215,1.896l-10.696,13.845h16.344l11.354-15.551V44.777H556.042z"/>
	<path id="path4148" fill="#525252" d="M267.979,124.977c2.097-0.128,4.846-0.521,11.107,3.02
		c22.658,9.481,33.332-15.188,41.159-32.092c-13.75-6.805-31.3-30.229-4.4-52.674c-6.305-7.776-14.988-11.883-24.775-12.037
		c-4.69-0.053-9.488,0.695-13.334,2.722c-4.307,2.269-7.571,2.85-7.867,2.891c-0.297,0.043-3.582,0.028-3.879-0.014
		c-0.296-0.043-4.687-0.536-8.168-2.392c-3.835-2.045-8.343-3.275-13.033-3.224c-36.077,0.401-48.949,53.714-9.915,94.746
		c5.662,5.952,16.965,4.846,21.897,2.058C263.033,124.441,265.767,125.111,267.979,124.977z"/>
	<path id="path4154" fill="#525252" d="M290.736,0.868c-0.721,20.796-11.026,29.086-25.881,31.413
		C265.168,14.818,273.782,4.337,290.736,0.868z"/>
</g>
</svg>
