<?xml version="1.0" encoding="utf-8"?>
<!-- Generator: Adobe Illustrator 13.0.0, SVG Export Plug-In . SVG Version: 6.00 Build 14948)  -->
<!DOCTYPE svg PUBLIC "-//W3C//DTD SVG 1.0//EN" "http://www.w3.org/TR/2001/REC-SVG-20010904/DTD/svg10.dtd">
<svg version="1.0" id="svg2" xmlns:svg="http://www.w3.org/2000/svg"
	 xmlns="http://www.w3.org/2000/svg" xmlns:xlink="http://www.w3.org/1999/xlink" x="0px" y="0px" width="792.9px"
	 height="133.48px" viewBox="0 0 792.9 133.48" enable-background="new 0 0 792.9 133.48" xml:space="preserve">
<path fill="#525252" d="M420.612,76.906l-57.379-54.784h-32.737v88.497h32.09V58.755l58.026,51.864h30.473V22.122h-30.473V76.906z
	 M573.288,22.122h-37.923L487.063,61.02V22.122h-31.444v88.497h31.444V67.504l49.272,43.115h37.604l-51.542-45.708L573.288,22.122z
	 M215.744,26.661c-6.806,4.862-10.375,12.643-10.375,23.34c0,10.698,3.242,18.477,9.401,23.34c4.214,3.239,8.754,4.862,13.939,4.862
	h63.536c1.944,0,2.916,1.294,2.916,3.564c0.325,2.593-0.972,3.89-2.916,3.89h-87.2v24.961h97.248c4.538,0,9.076-1.296,12.966-4.217
	c6.807-4.536,10.048-12.641,10.048-23.985c0-18.153-8.104-27.881-23.665-28.526h-62.237c-2.267,0-3.565-1.296-3.243-3.565
	c0-2.593,0.976-3.565,3.57-3.565h85.575V22.122h-96.598C224.173,22.122,219.955,23.741,215.744,26.661z M582.637,28.164
	c-0.122-0.121-0.283-0.221-0.487-0.305c0.498-0.04,0.896-0.214,1.198-0.527c0.303-0.313,0.453-0.681,0.453-1.102
	c0-0.299-0.089-0.58-0.269-0.843c-0.181-0.266-0.421-0.452-0.723-0.56c-0.306-0.106-0.795-0.16-1.47-0.16h-1.979v5.763h0.925v-2.447
	h0.545c0.328,0.001,0.574,0.069,0.744,0.2c0.243,0.182,0.57,0.629,0.972,1.34l0.512,0.907h1.131l-0.701-1.125
	C583.153,28.77,582.871,28.39,582.637,28.164z M581.414,27.187h-1.128v-1.741h1.057c0.455,0,0.766,0.034,0.933,0.1
	c0.171,0.066,0.301,0.167,0.397,0.302c0.091,0.135,0.141,0.287,0.141,0.456c0,0.267-0.099,0.48-0.294,0.643
	C582.323,27.105,581.955,27.187,581.414,27.187z M586.33,24.79c-0.477-0.858-1.143-1.518-1.996-1.977
	c-0.853-0.462-1.729-0.691-2.627-0.691c-0.896,0-1.771,0.229-2.624,0.691c-0.855,0.459-1.521,1.119-2.002,1.977
	c-0.48,0.855-0.719,1.751-0.719,2.681c0,0.921,0.234,1.807,0.709,2.658c0.47,0.849,1.129,1.51,1.979,1.978
	c0.847,0.472,1.732,0.706,2.657,0.706c0.924,0,1.812-0.233,2.657-0.706c0.847-0.468,1.508-1.129,1.978-1.978
	c0.468-0.851,0.704-1.737,0.704-2.658C587.046,26.541,586.806,25.646,586.33,24.79z M585.569,29.684
	c-0.393,0.706-0.94,1.256-1.647,1.65s-1.447,0.591-2.215,0.591c-0.77,0-1.508-0.197-2.217-0.591c-0.705-0.394-1.257-0.944-1.65-1.65
	c-0.393-0.706-0.589-1.443-0.589-2.213c0-0.774,0.199-1.519,0.598-2.233c0.402-0.718,0.958-1.266,1.669-1.651
	c0.71-0.385,1.439-0.578,2.189-0.578c0.746,0,1.475,0.193,2.188,0.578s1.267,0.933,1.664,1.651c0.398,0.714,0.599,1.459,0.599,2.233
	C586.157,28.241,585.961,28.979,585.569,29.684z"/>
</svg>
