<?xml version="1.0" encoding="utf-8"?>
<!-- Generator: Adobe Illustrator 13.0.0, SVG Export Plug-In . SVG Version: 6.00 Build 14948)  -->
<!DOCTYPE svg PUBLIC "-//W3C//DTD SVG 1.0//EN" "http://www.w3.org/TR/2001/REC-SVG-20010904/DTD/svg10.dtd">
<svg version="1.0" id="svg2" xmlns:svg="http://www.w3.org/2000/svg"
	 xmlns="http://www.w3.org/2000/svg" xmlns:xlink="http://www.w3.org/1999/xlink" x="0px" y="0px" width="792.9px"
	 height="133.48px" viewBox="0 0 792.9 133.48" enable-background="new 0 0 792.9 133.48" xml:space="preserve">
<path fill="#525252" d="M446.353,16.479c0,2.116-1.458,3.574-3.307,3.574c-2.061,0-3.339-1.607-3.339-3.574
	c0-2.104,1.464-3.574,3.339-3.574C444.895,12.905,446.353,14.374,446.353,16.479 M447.277,16.479c0-2.601-1.968-4.326-4.231-4.326
	c-2.297,0-4.264,1.725-4.264,4.326c0,2.463,1.774,4.331,4.264,4.331C445.31,20.809,447.277,19.084,447.277,16.479z M442.188,16.236
	v-1.402h0.943c0.479,0,1.043,0.068,1.043,0.652c0,0.695-0.521,0.75-1.111,0.75H442.188z M442.188,16.907h0.738l1.234,2.047h0.895
	l-1.34-2.103c0.713-0.081,1.247-0.441,1.247-1.309c0-0.975-0.59-1.378-1.744-1.378h-1.817v4.791h0.787V16.907z"/>
<path fill="#525252" d="M356.991,121.39c4.026,0,6.081-1.75,6.081-4.355c0-1.973-2.054-3.251-3.705-3.333v-0.043
	c0.899-0.403,2.786-1.054,2.786-3.276c0-2.073-1.868-3.227-4.697-3.227h-6.323v14.234H356.991 M355.427,115.111h1.216
	c1.489,0,2.054,0.731,2.054,1.85c0,1.377-0.956,2.134-2.464,2.134h-0.807V115.111z M355.427,109.452h1.198
	c0.626,0,1.669,0.322,1.669,1.526c0,0.931-0.552,1.83-2.116,1.83h-0.751V109.452z"/>
<path fill="#525252" d="M364.624,121.39h4.293v-5.386h1.117l2.258,5.635l4.592-0.472l-3.152-6.105
	c1.328-0.646,2.401-1.924,2.401-4.108c0-2.333-1.805-3.798-5.162-3.798h-6.348L364.624,121.39 M368.917,109.818h1.142
	c0.913,0,1.787,0.342,1.787,1.75c0,0.775-0.571,1.749-1.707,1.749h-1.222L368.917,109.818L368.917,109.818z"/>
<path fill="#525252" d="M383.289,115.738c0.528-1.688,1.018-3.054,1.564-5.082h0.037c0.509,2.028,0.918,3.394,1.39,5.082H383.289
	 M383.629,107.156l-5.79,14.233h3.351l1.365-3.394h4.412l1.117,3.394h4.555l-5.404-14.233H383.629z"/>
<path fill="#525252" d="M398.212,109.818h1.241c1.868,0,3.475,1.483,3.475,4.064c0,2.873-1.16,4.846-3.618,4.846h-1.1v-8.91
	 M393.918,107.156v14.233h5.368c4.268,0,8.054-2.32,8.054-7.521c0-3.438-2.196-6.713-7.887-6.713H393.918z"/>
<polyline fill="#525252" points="409.319,121.39 418.819,121.39 418.819,118.728 413.606,118.728 413.606,107.156 409.319,107.156 
	409.319,121.39 "/>
<polyline fill="#525252" points="429.157,107.156 420.513,107.156 420.513,121.39 430.027,121.39 430.027,118.728 424.802,118.728 
	424.802,115.285 429.053,115.285 429.053,112.629 424.802,112.629 424.802,109.818 429.157,109.818 429.157,107.156 "/>
<path fill="#525252" d="M439.043,121.39v-5.534l4.375-8.502l-3.42-0.409c-0.875,1.874-1.731,3.767-2.587,6.249h-0.038
	c-0.707-2.482-1.464-4.375-2.195-6.249l-4.617,0.409l4.194,8.502v5.534H439.043"/>
<path fill="#525252" d="M375.153,90.545h-5.69c-0.943,2.724-1.892,5.429-2.811,8.768h-0.038c-0.956-3.339-1.936-6.044-2.911-8.768
	h-5.82v14.24h3.382V94.82h0.037c1.123,3.723,2.277,6.851,3.438,9.965h2.706c1.135-3.114,2.277-6.242,3.375-9.965h0.038v9.965h4.294
	V90.545"/>
<polyline fill="#525252" points="382.867,104.785 382.867,90.545 378.572,90.545 378.572,104.785 382.867,104.785 "/>
<polyline fill="#525252" points="386.167,104.785 395.667,104.785 395.667,102.117 390.462,102.117 390.462,90.545 386.167,90.545 
	386.167,104.785 "/>
<polyline fill="#525252" points="403.27,104.785 403.27,93.207 407.377,93.207 407.377,90.545 394.867,90.545 394.867,93.207 
	398.976,93.207 398.976,104.785 403.27,104.785 "/>
<path fill="#525252" d="M414.936,102.054c-1.912,0-2.594-1.867-2.594-4.554c0-2.52,0.769-4.232,2.594-4.232
	c1.837,0,2.605,1.713,2.605,4.232C417.541,100.187,416.847,102.054,414.936,102.054 M414.936,105.034c4.374,0,7.08-3.276,7.08-7.533
	c0-3.985-2.991-7.204-7.08-7.204c-4.083,0-7.074,3.219-7.074,7.204C407.861,101.758,410.566,105.034,414.936,105.034z"/>
<path fill="#525252" d="M436.66,90.545h-3.376v8.159h-0.043c-1.012-1.937-4.084-5.635-6.138-8.159h-3.108v14.24h3.369v-8.34h0.043
	c1.365,2.359,4.251,5.76,6.385,8.34h2.867L436.66,90.545"/>
<path fill="#525252" d="M388.824,46.834c0.011-0.043,0-1.539,0-1.539l-0.237,1.539l-8.661,32.069h-8.129l-8.638-32.069
	c-0.093-0.124-0.273-1.569-0.273-1.569v1.569l-0.031,32.069h-11.833V12.066h14.619l9.879,36.332l0.187,1.074l0.187-1.074
	l9.63-36.332h15.271v66.838h-11.958L388.824,46.834"/>
<g>
	<g>
		<path fill="#525252" d="M434.897,43.657c3.233-2.675,5.821-7.334,6.101-13.683c0.421-9.395-7.372-17.952-18.927-17.963
			l-16.021-0.013l0.037,66.855h16.208c8.725,0,18.33-4.07,20.589-15.705C444.249,56.111,441.495,47.858,434.897,43.657z
			 M417.895,23.222c0.708-0.093,3.407-0.05,3.407-0.05c2.52-0.031,7.775,2.376,7.688,7.346c-0.111,6.801-5.317,8.204-7.683,8.242
			c0,0-2.717,0.049-3.413,0.049V23.222z M421.913,67.58c0,0-3.199,0.054-4.019,0.054v-16.95c0.833-0.101,4.011-0.054,4.011-0.054
			c2.967-0.035,9.154,2.584,9.052,7.989C430.825,66.014,424.696,67.54,421.913,67.58z"/>
	</g>
</g>
</svg>
