<?xml version="1.0" encoding="utf-8"?>
<!-- Generator: Adobe Illustrator 13.0.0, SVG Export Plug-In . SVG Version: 6.00 Build 14948)  -->
<!DOCTYPE svg PUBLIC "-//W3C//DTD SVG 1.0//EN" "http://www.w3.org/TR/2001/REC-SVG-20010904/DTD/svg10.dtd">
<svg version="1.0" id="svg2" xmlns:svg="http://www.w3.org/2000/svg"
	 xmlns="http://www.w3.org/2000/svg" xmlns:xlink="http://www.w3.org/1999/xlink" x="0px" y="0px" width="792.9px"
	 height="133.48px" viewBox="0 0 792.9 133.48" enable-background="new 0 0 792.9 133.48" xml:space="preserve">
<g>
	<path id="path3" fill="#525252" d="M476.149,44.134V27.004c22.318-0.336,23.221-0.632,30.6-0.442
		c11.343,0.287,18.183,3.527,23.101,8.507c4.74,4.8,8.501,12.12,8.326,22.745c-0.103,6.118-3.882,28.623-31.242,30.028
		c-3.209,0.287-10.575,0.033-15.253,0.144l4.625-17.574c10.84,0.903,19.439-2.518,19.897-12.777
		c0.503-11.519-9.709-15.176-19.895-13.373L476.149,44.134"/>
	<polyline id="polyline5" fill="#525252" points="496.296,104.55 476.149,104.547 476.149,40.483 496.296,40.614 496.296,104.55 	
		"/>
	<path id="path7" fill="#525252" d="M568.714,54.316l16.537,5.89c11.009,4.344,13.348,13.163,13.242,20.757
		c-0.243,17.614-14.299,24.218-25.502,25.171c-12.74,1.081-22.602-1.052-25.916-1.59v-19.17c10.083,3.063,21.816,2.94,25.778,1.396
		c2.998-1.168,5.274-2.952,5.094-5.295c-0.1-1.271-0.228-2.888-4.016-4.507l-15.25-5.533c-9.793-3.525-13.571-12.823-13.163-21.104
		c0.829-16.735,14.197-25.203,27.545-24.714c4.117,0.149,9.665,0.052,17.734,1.169v18.99c-9.041-2.102-13.28-2.067-17.943-1.488
		c-5.217,0.645-7.56,3.342-7.45,6.223c0.052,1.461,1.511,3.063,3.311,3.779"/>
	<polyline id="polyline9" fill="#525252" points="285.901,55.902 307.597,55.902 307.591,27.076 327.741,27.076 327.741,104.562 
		307.597,104.562 307.597,73.454 285.901,73.454 285.898,104.562 265.728,104.562 265.728,27.076 285.898,27.076 285.901,55.902 	
		"/>
	<rect id="rect11" x="346.72" y="27.076" fill="#525252" width="20.163" height="77.486"/>
	<rect id="rect13" x="436.812" y="27.076" fill="#525252" width="20.166" height="77.486"/>
	<polyline id="polyline15" fill="#525252" points="406.024,86.969 426.813,86.969 426.813,104.555 385.855,104.562 385.855,27.076 
		406.024,27.076 406.024,86.969 	"/>
	<path id="path17" fill="#525252" d="M193.892,44.134V27.004c22.321-0.336,23.222-0.632,30.604-0.442
		c11.338,0.287,18.178,3.527,23.1,8.507c4.737,4.8,8.5,12.12,8.326,22.745c-0.106,6.118-3.885,28.623-31.246,30.028
		c-3.205,0.287-10.342,0.033-15.02,0.144l4.404-17.574c10.843,0.903,19.437-2.518,19.885-12.777
		c0.501-11.519-9.712-15.176-19.895-13.373L193.892,44.134"/>
	<polyline id="polyline19" fill="#525252" points="214.07,104.55 193.892,104.547 193.892,41.813 214.051,41.94 214.07,104.55 	"/>
</g>
</svg>
