<?xml version="1.0" encoding="utf-8"?>
<!-- Generator: Adobe Illustrator 13.0.0, SVG Export Plug-In . SVG Version: 6.00 Build 14948)  -->
<!DOCTYPE svg PUBLIC "-//W3C//DTD SVG 1.0//EN" "http://www.w3.org/TR/2001/REC-SVG-20010904/DTD/svg10.dtd">
<svg version="1.0" id="svg2" xmlns:svg="http://www.w3.org/2000/svg"
	 xmlns="http://www.w3.org/2000/svg" xmlns:xlink="http://www.w3.org/1999/xlink" x="0px" y="0px" width="792.9px"
	 height="133.48px" viewBox="0 0 792.9 133.48" enable-background="new 0 0 792.9 133.48" xml:space="preserve">
<path id="path1933" fill="#525252" d="M152.687,61.641c0.031-12.579,15.362-14.189,16.857-14.079h23.549
	c14.269,0.252,16.163,10.543,16.163,10.543l0.126,5.683h-14.773c0,0,0.189-4.609-2.715-4.609s-20.708,0-20.708,0
	s-3.157-0.063-3.283,4.609c-0.11,3.976-0.126,11.427-0.126,11.427s-0.081,3.473,4.988,3.473c5.062,0,11.37,0,14.9,0
	c3.467,0,7.008-1.578,6.881-4.356c0,0-0.173,0,3.031,0s10.291,0,10.291,0v6.251c0,0,0.705,7.968-15.152,9.091
	c0,0-6.876,0.127-13.164,0.127c-6.274,0-9.393-0.461-12.532-0.821c-4.604-0.528-14.142-4.277-14.142-12.185
	C152.876,66.625,152.687,63.03,152.687,61.641z"/>
<path id="rect5653" fill="#525252" d="M493.656,49.629c-8.483,0-15.313,5.106-15.313,11.438v17.969
	c0,6.332,6.829,11.438,15.313,11.438h27.313c8.482,0,15.281-5.105,15.281-11.438V61.066c0-6.331-6.799-11.438-15.281-11.438H493.656
	z M500.656,59.597h13.781c4.186,0,7.563,2.354,7.563,5.313v10.219c0,2.959-3.377,5.344-7.563,5.344h-13.781
	c-4.186,0-7.531-2.385-7.531-5.344V64.91C493.125,61.952,496.471,59.597,500.656,59.597z"/>
<path id="path6547" fill="#525252" d="M623.851,49.999c-8.483,0-15.313,5.106-15.313,11.438v17.969
	c0,6.332,6.829,11.438,15.313,11.438h27.313c8.483,0,15.281-5.105,15.281-11.438V61.436c0-6.331-6.798-11.438-15.281-11.438H623.851
	z M630.851,59.968h13.781c4.186,0,7.563,2.354,7.563,5.313v10.219c0,2.959-3.377,5.344-7.563,5.344h-13.781
	c-4.186,0-7.531-2.385-7.531-5.344V65.28C623.319,62.322,626.665,59.968,630.851,59.968z"/>
<path id="path6549" fill="#525252" d="M231.464,48.627c-8.483,0-15.313,5.105-15.313,11.438v17.969
	c0,6.331,6.83,11.437,15.313,11.438h27.313c8.483,0,15.281-5.106,15.281-11.438V60.064c0-6.332-6.798-11.438-15.281-11.438H231.464z
	 M238.464,58.595h13.781c4.186,0,7.563,2.354,7.563,5.313v10.219c0,2.958-3.377,5.344-7.563,5.344h-13.781
	c-4.185-0.001-7.531-2.386-7.531-5.344V63.908C230.933,60.949,234.279,58.595,238.464,58.595z"/>
<path id="path6555" fill="#525252" d="M372.6,88.577h-15.291V65.518c0,0,0.121-6.068-6.554-6.068s-3.459,0.061-10.134,0.061
	c-6.674,1.457-6.613,7.524-6.613,7.524v21.678h-14.807V65.654c0,0,0.122-6.068-6.553-6.068s-3.155-0.121-9.831-0.121
	c-6.674,1.456-6.553,7.889-6.553,7.889v21.237h-15.291V49.568h14.156v3.862h1.251c1.421,0.063,1.668,0.147,3.372-1.828
	c2.411-2.796,7.849-2.978,7.849-2.978h11.042c0,0,10.863,0.132,12.638,6.936l0.9,0.012c0,0,2.799-6.821,10.694-6.857
	c0,0,2.117,0.082,7.474-0.133c15.806-0.625,21.894,7.386,22.325,12.978L372.6,88.577z"/>
<path id="path1920" fill="#525252" d="M586.657,32.504l0.188,22.375c-6.093-6.093-10.469-5.469-10.469-5.469h-18.813
	c-15.962,0.687-14.563,12.938-14.563,12.938l0.063,18.719c0.772,8.41,15.125,9.594,15.125,9.594s12.774,0,19.125,0
	c6.35,0,8.25-5.125,8.25-5.125h2.219v4.781h14.063V32.504H586.657z M566.188,59.691h12.469c4.54,0,8.188,2.197,8.188,4.906v10.969
	c0,2.71-3.647,4.906-8.188,4.906h-12.469c-4.54,0-8.188-2.196-8.188-4.906V64.597C558.001,61.888,561.648,59.691,566.188,59.691z"/>
<path id="path1928" fill="#525252" d="M673.206,50.484v39.928l15.17-0.122l-0.121-21.966c0,0,0.486-5.775,6.917-7.646l8.01-0.121
	c0,0,4.006,0,3.884,7.038l14.078-0.121v-8.131c0,0-0.85-9.588-10.194-9.588l-10.923-0.121c0,0-6.692-0.967-10.558,5.704h-2.185
	v-4.854H673.206z"/>
<path id="path1930" fill="#525252" d="M752.461,49.691c-2.651,0.011-5.508,0.058-8.531,0.063
	c-15.51,0.029-15.875,13.625-15.875,13.625s-0.063,6.351-0.063,15.531c0,8.755,13.121,12.454,17.75,12.625
	c2.038,0.076,9.544,0,23.531,0c7.096-1.058,15.554-3.455,15.094-12.094h-14.75c-0.429,2.918-4.656,3.156-4.656,3.156
	s-16.238-0.063-17.094-0.063c-4.574,0-4.219-8.844-4.219-8.844h40.813c0,0,0.027-1.834,0.031-2.875
	c0.011-2.842-0.049-7.834-0.719-10.094C780.627,50.108,771.019,49.616,752.461,49.691z M748.492,58.504
	c0.145-0.011,0.297-0.006,0.438,0c3.58,0,14.625,0,14.625,0s5.781,0.17,5.781,3.75c0,4.831,0,3.469,0,3.469l-25.813-0.125
	c0,0-0.019-1.347,0.188-3.469C743.846,60.742,746.33,58.676,748.492,58.504z"/>
<path id="path2828" fill="#525252" d="M471.19,88.577h-15.292V65.518c0,0,0.122-6.068-6.553-6.068s-3.459,0.061-10.134,0.061
	c-6.675,1.457-6.614,7.524-6.614,7.524v21.678h-14.806V65.654c0,0,0.121-6.068-6.554-6.068c-6.674,0-3.155-0.121-9.83-0.121
	c-6.674,1.456-6.553,7.889-6.553,7.889v21.237h-15.291V49.568h14.156v3.862h1.251c1.422,0.063,1.669,0.147,3.372-1.828
	c2.411-2.796,7.85-2.978,7.85-2.978h11.042c0,0,10.862,0.132,12.638,6.936l0.9,0.012c0,0,2.799-6.821,10.693-6.857
	c0,0,2.117,0.082,7.475-0.133c15.806-0.625,21.893,7.386,22.325,12.978L471.19,88.577z"/>
<g id="g1980" transform="translate(6.865114,6.865115)">
	<path id="path1946" fill="#525252" d="M77.175,118.657c-5.947,2.074-11.533,2.822-18.161,2.822c-8.148,0-15.911-1.699-22.971-4.773
		c-7.06-3.073-13.418-7.521-18.758-13.017c-5.339-5.495-9.661-12.04-12.647-19.307C1.651,77.116,0,69.127,0,60.74
		s1.651-16.376,4.638-23.644c2.986-7.266,7.308-13.811,12.647-19.306c5.339-5.497,11.698-9.944,18.758-13.018
		C43.103,1.699,50.866,0,59.014,0c6.239,0,9.604,0.275,15.248,2.122c0.621,0.215,1.482,0.519,2.866,0.978l-0.025,3.733l0.063,26.12
		v0.243c-0.233-0.153-0.968-0.63-1.034-0.668c-4.815-2.797-9.513-3.938-15.5-3.938c-8.967,0-17.085,3.599-22.962,9.416
		c-5.876,5.818-9.511,13.856-9.511,22.734s3.635,16.916,9.511,22.733c5.877,5.818,13.995,9.416,22.962,9.416
		c6.249,0,11.554-1.754,16.507-4.782v0.952l0.036,28.842V118.657z"/>
	<polygon id="polygon1948" fill="#525252" points="77.661,33.705 128.799,33.705 105.927,58.195 77.661,58.195 	"/>
	<polygon id="polygon1950" fill="#525252" points="77.661,87.648 128.799,87.648 105.927,63.158 77.661,63.158 	"/>
</g>
</svg>
